<mxfile host="Electron" agent="Mozilla/5.0 (Windows NT 10.0; Win64; x64) AppleWebKit/537.36 (KHTML, like Gecko) draw.io/28.1.2 Chrome/138.0.7204.243 Electron/37.4.0 Safari/537.36" version="28.1.2">
  <diagram name="Page-1" id="c7488fd3-1785-93aa-aadb-54a6760d102a">
    <mxGraphModel dx="2142" dy="1476" grid="1" gridSize="10" guides="1" tooltips="1" connect="1" arrows="1" fold="1" page="1" pageScale="1" pageWidth="1100" pageHeight="850" background="none" math="0" shadow="0">
      <root>
        <mxCell id="0" />
        <mxCell id="1" parent="0" />
        <mxCell id="2b4e8129b02d487f-1" value="ACME Single Package" style="swimlane;html=1;childLayout=stackLayout;horizontal=1;startSize=20;horizontalStack=0;rounded=0;shadow=0;labelBackgroundColor=none;strokeWidth=1;fontFamily=Verdana;fontSize=8;align=center;fillColor=#f5f5f5;fontColor=#333333;strokeColor=#666666;" parent="1" vertex="1">
          <mxGeometry x="180" y="60" width="1140" height="1940" as="geometry">
            <mxRectangle x="180" y="70" width="60" height="20" as="alternateBounds" />
          </mxGeometry>
        </mxCell>
        <mxCell id="2b4e8129b02d487f-2" value="Initialize Apps" style="swimlane;html=1;startSize=20;horizontal=0;fillColor=#dae8fc;strokeColor=#6c8ebf;" parent="2b4e8129b02d487f-1" vertex="1">
          <mxGeometry y="20" width="1140" height="150" as="geometry" />
        </mxCell>
        <mxCell id="2b4e8129b02d487f-18" style="edgeStyle=orthogonalEdgeStyle;rounded=0;html=1;labelBackgroundColor=none;startArrow=none;startFill=0;startSize=5;endArrow=classicThin;endFill=1;endSize=5;jettySize=auto;orthogonalLoop=1;strokeWidth=1;fontFamily=Verdana;fontSize=8" parent="2b4e8129b02d487f-2" source="2b4e8129b02d487f-5" target="2b4e8129b02d487f-6" edge="1">
          <mxGeometry relative="1" as="geometry" />
        </mxCell>
        <mxCell id="2b4e8129b02d487f-5" value="Start" style="ellipse;whiteSpace=wrap;html=1;rounded=0;shadow=0;labelBackgroundColor=none;strokeWidth=1;fontFamily=Verdana;fontSize=8;align=center;fillColor=#dae8fc;strokeColor=#6c8ebf;fontStyle=1" parent="2b4e8129b02d487f-2" vertex="1">
          <mxGeometry x="30" y="10" width="50" height="50" as="geometry" />
        </mxCell>
        <mxCell id="lynWyJ27UmlPL52xSpIG-3" style="edgeStyle=orthogonalEdgeStyle;rounded=0;orthogonalLoop=1;jettySize=auto;html=1;exitX=1;exitY=0.5;exitDx=0;exitDy=0;entryX=0;entryY=0.5;entryDx=0;entryDy=0;" parent="2b4e8129b02d487f-2" source="2b4e8129b02d487f-6" target="lynWyJ27UmlPL52xSpIG-2" edge="1">
          <mxGeometry relative="1" as="geometry" />
        </mxCell>
        <mxCell id="2b4e8129b02d487f-6" value="Launch ACME System 1" style="rounded=1;whiteSpace=wrap;html=1;shadow=0;labelBackgroundColor=none;strokeWidth=1;fontFamily=Verdana;fontSize=8;align=center;fillColor=#dae8fc;strokeColor=#6c8ebf;fontStyle=1" parent="2b4e8129b02d487f-2" vertex="1">
          <mxGeometry x="100" y="16.49999999999997" width="70" height="37" as="geometry" />
        </mxCell>
        <mxCell id="lynWyJ27UmlPL52xSpIG-4" value="NO" style="edgeStyle=orthogonalEdgeStyle;rounded=0;orthogonalLoop=1;jettySize=auto;html=1;exitX=0.5;exitY=1;exitDx=0;exitDy=0;entryX=0.5;entryY=0;entryDx=0;entryDy=0;fontStyle=1" parent="2b4e8129b02d487f-2" source="lynWyJ27UmlPL52xSpIG-2" target="lynWyJ27UmlPL52xSpIG-1" edge="1">
          <mxGeometry relative="1" as="geometry" />
        </mxCell>
        <mxCell id="lynWyJ27UmlPL52xSpIG-6" value="Yes" style="edgeStyle=orthogonalEdgeStyle;rounded=0;orthogonalLoop=1;jettySize=auto;html=1;exitX=1;exitY=0.5;exitDx=0;exitDy=0;entryX=0;entryY=0.5;entryDx=0;entryDy=0;fontStyle=1" parent="2b4e8129b02d487f-2" source="lynWyJ27UmlPL52xSpIG-2" target="lynWyJ27UmlPL52xSpIG-5" edge="1">
          <mxGeometry relative="1" as="geometry" />
        </mxCell>
        <mxCell id="lynWyJ27UmlPL52xSpIG-2" value="App&amp;nbsp;&lt;div&gt;Launched&amp;nbsp;&lt;/div&gt;&lt;div&gt;Success&lt;/div&gt;" style="rhombus;whiteSpace=wrap;html=1;fillColor=#e1d5e7;strokeColor=#9673a6;fontSize=7;fontStyle=1" parent="2b4e8129b02d487f-2" vertex="1">
          <mxGeometry x="190" y="5" width="60" height="60" as="geometry" />
        </mxCell>
        <mxCell id="lynWyJ27UmlPL52xSpIG-1" value="SE01" style="ellipse;whiteSpace=wrap;html=1;fontStyle=1;fillColor=#e51400;fontColor=#ffffff;strokeColor=#B20000;" parent="2b4e8129b02d487f-2" vertex="1">
          <mxGeometry x="195" y="110" width="50" height="30" as="geometry" />
        </mxCell>
        <mxCell id="lynWyJ27UmlPL52xSpIG-8" style="edgeStyle=orthogonalEdgeStyle;rounded=0;orthogonalLoop=1;jettySize=auto;html=1;exitX=1;exitY=0.5;exitDx=0;exitDy=0;entryX=0;entryY=0.5;entryDx=0;entryDy=0;" parent="2b4e8129b02d487f-2" source="lynWyJ27UmlPL52xSpIG-5" target="lynWyJ27UmlPL52xSpIG-7" edge="1">
          <mxGeometry relative="1" as="geometry" />
        </mxCell>
        <mxCell id="lynWyJ27UmlPL52xSpIG-5" value="Login ACME system 1" style="rounded=1;whiteSpace=wrap;html=1;shadow=0;labelBackgroundColor=none;strokeWidth=1;fontFamily=Verdana;fontSize=8;align=center;fillColor=#dae8fc;strokeColor=#6c8ebf;fontStyle=1" parent="2b4e8129b02d487f-2" vertex="1">
          <mxGeometry x="300" y="16.5" width="70" height="37" as="geometry" />
        </mxCell>
        <mxCell id="lynWyJ27UmlPL52xSpIG-11" value="No" style="edgeStyle=orthogonalEdgeStyle;rounded=0;orthogonalLoop=1;jettySize=auto;html=1;exitX=0.5;exitY=1;exitDx=0;exitDy=0;fontStyle=1" parent="2b4e8129b02d487f-2" source="lynWyJ27UmlPL52xSpIG-7" target="lynWyJ27UmlPL52xSpIG-9" edge="1">
          <mxGeometry relative="1" as="geometry" />
        </mxCell>
        <mxCell id="lynWyJ27UmlPL52xSpIG-13" value="Yes" style="edgeStyle=orthogonalEdgeStyle;rounded=0;orthogonalLoop=1;jettySize=auto;html=1;exitX=1;exitY=0.5;exitDx=0;exitDy=0;entryX=0;entryY=0.5;entryDx=0;entryDy=0;fontStyle=1" parent="2b4e8129b02d487f-2" source="lynWyJ27UmlPL52xSpIG-7" target="lynWyJ27UmlPL52xSpIG-12" edge="1">
          <mxGeometry relative="1" as="geometry" />
        </mxCell>
        <mxCell id="lynWyJ27UmlPL52xSpIG-7" value="Login&amp;nbsp;&lt;div&gt;Success&lt;/div&gt;" style="rhombus;whiteSpace=wrap;html=1;fillColor=#e1d5e7;strokeColor=#9673a6;fontSize=7;fontStyle=1" parent="2b4e8129b02d487f-2" vertex="1">
          <mxGeometry x="400" y="5" width="60" height="60" as="geometry" />
        </mxCell>
        <mxCell id="lynWyJ27UmlPL52xSpIG-9" value="BE01" style="ellipse;whiteSpace=wrap;html=1;fontStyle=1;fillColor=#e51400;fontColor=#ffffff;strokeColor=#B20000;" parent="2b4e8129b02d487f-2" vertex="1">
          <mxGeometry x="405" y="110" width="50" height="30" as="geometry" />
        </mxCell>
        <mxCell id="lynWyJ27UmlPL52xSpIG-15" style="edgeStyle=orthogonalEdgeStyle;rounded=0;orthogonalLoop=1;jettySize=auto;html=1;exitX=1;exitY=0.5;exitDx=0;exitDy=0;entryX=0;entryY=0.5;entryDx=0;entryDy=0;" parent="2b4e8129b02d487f-2" source="lynWyJ27UmlPL52xSpIG-12" target="lynWyJ27UmlPL52xSpIG-14" edge="1">
          <mxGeometry relative="1" as="geometry" />
        </mxCell>
        <mxCell id="lynWyJ27UmlPL52xSpIG-12" value="Lanch ACME System 3" style="rounded=1;whiteSpace=wrap;html=1;shadow=0;labelBackgroundColor=none;strokeWidth=1;fontFamily=Verdana;fontSize=8;align=center;fillColor=#dae8fc;strokeColor=#6c8ebf;fontStyle=1" parent="2b4e8129b02d487f-2" vertex="1">
          <mxGeometry x="520" y="16.5" width="70" height="37" as="geometry" />
        </mxCell>
        <mxCell id="lynWyJ27UmlPL52xSpIG-17" value="No" style="edgeStyle=orthogonalEdgeStyle;rounded=0;orthogonalLoop=1;jettySize=auto;html=1;exitX=0.5;exitY=1;exitDx=0;exitDy=0;fontStyle=1" parent="2b4e8129b02d487f-2" source="lynWyJ27UmlPL52xSpIG-14" target="lynWyJ27UmlPL52xSpIG-16" edge="1">
          <mxGeometry relative="1" as="geometry" />
        </mxCell>
        <mxCell id="lynWyJ27UmlPL52xSpIG-20" value="Yes" style="edgeStyle=orthogonalEdgeStyle;rounded=0;orthogonalLoop=1;jettySize=auto;html=1;exitX=1;exitY=0.5;exitDx=0;exitDy=0;entryX=0;entryY=0.5;entryDx=0;entryDy=0;fontStyle=1" parent="2b4e8129b02d487f-2" source="lynWyJ27UmlPL52xSpIG-14" target="lynWyJ27UmlPL52xSpIG-19" edge="1">
          <mxGeometry relative="1" as="geometry" />
        </mxCell>
        <mxCell id="lynWyJ27UmlPL52xSpIG-14" value="App&amp;nbsp;&lt;div&gt;Launched&amp;nbsp;&lt;/div&gt;&lt;div&gt;Success&lt;/div&gt;" style="rhombus;whiteSpace=wrap;html=1;fillColor=#e1d5e7;strokeColor=#9673a6;fontSize=7;fontStyle=1" parent="2b4e8129b02d487f-2" vertex="1">
          <mxGeometry x="640" y="5" width="60" height="60" as="geometry" />
        </mxCell>
        <mxCell id="lynWyJ27UmlPL52xSpIG-16" value="SE01" style="ellipse;whiteSpace=wrap;html=1;fontStyle=1;fillColor=#e51400;fontColor=#ffffff;strokeColor=#B20000;" parent="2b4e8129b02d487f-2" vertex="1">
          <mxGeometry x="645" y="110" width="50" height="30" as="geometry" />
        </mxCell>
        <mxCell id="lynWyJ27UmlPL52xSpIG-22" style="edgeStyle=orthogonalEdgeStyle;rounded=0;orthogonalLoop=1;jettySize=auto;html=1;exitX=1;exitY=0.5;exitDx=0;exitDy=0;entryX=0;entryY=0.5;entryDx=0;entryDy=0;" parent="2b4e8129b02d487f-2" source="lynWyJ27UmlPL52xSpIG-19" target="lynWyJ27UmlPL52xSpIG-21" edge="1">
          <mxGeometry relative="1" as="geometry" />
        </mxCell>
        <mxCell id="lynWyJ27UmlPL52xSpIG-19" value="Login ACME system 3" style="rounded=1;whiteSpace=wrap;html=1;shadow=0;labelBackgroundColor=none;strokeWidth=1;fontFamily=Verdana;fontSize=8;align=center;fillColor=#dae8fc;strokeColor=#6c8ebf;fontStyle=1" parent="2b4e8129b02d487f-2" vertex="1">
          <mxGeometry x="810" y="16.5" width="70" height="37" as="geometry" />
        </mxCell>
        <mxCell id="lynWyJ27UmlPL52xSpIG-24" value="No" style="edgeStyle=orthogonalEdgeStyle;rounded=0;orthogonalLoop=1;jettySize=auto;html=1;exitX=0.5;exitY=1;exitDx=0;exitDy=0;entryX=0.5;entryY=0;entryDx=0;entryDy=0;fontStyle=1" parent="2b4e8129b02d487f-2" source="lynWyJ27UmlPL52xSpIG-21" target="lynWyJ27UmlPL52xSpIG-23" edge="1">
          <mxGeometry relative="1" as="geometry" />
        </mxCell>
        <mxCell id="lynWyJ27UmlPL52xSpIG-26" value="Yes" style="edgeStyle=orthogonalEdgeStyle;rounded=0;orthogonalLoop=1;jettySize=auto;html=1;exitX=1;exitY=0.5;exitDx=0;exitDy=0;entryX=0;entryY=0.5;entryDx=0;entryDy=0;fontStyle=1" parent="2b4e8129b02d487f-2" source="lynWyJ27UmlPL52xSpIG-21" target="lynWyJ27UmlPL52xSpIG-25" edge="1">
          <mxGeometry relative="1" as="geometry" />
        </mxCell>
        <mxCell id="lynWyJ27UmlPL52xSpIG-21" value="Login&amp;nbsp;&lt;div&gt;Success&lt;/div&gt;" style="rhombus;whiteSpace=wrap;html=1;fillColor=#e1d5e7;strokeColor=#9673a6;fontSize=7;fontStyle=1" parent="2b4e8129b02d487f-2" vertex="1">
          <mxGeometry x="920" y="5" width="60" height="60" as="geometry" />
        </mxCell>
        <mxCell id="lynWyJ27UmlPL52xSpIG-23" value="BE01" style="ellipse;whiteSpace=wrap;html=1;fontStyle=1;fillColor=#e51400;fontColor=#ffffff;strokeColor=#B20000;" parent="2b4e8129b02d487f-2" vertex="1">
          <mxGeometry x="925" y="110" width="50" height="30" as="geometry" />
        </mxCell>
        <mxCell id="lynWyJ27UmlPL52xSpIG-25" value="Extract Data" style="ellipse;whiteSpace=wrap;html=1;rounded=0;shadow=0;labelBackgroundColor=none;strokeWidth=1;fontFamily=Verdana;fontSize=8;align=center;fillColor=#d5e8d4;strokeColor=#82b366;fontStyle=1" parent="2b4e8129b02d487f-2" vertex="1">
          <mxGeometry x="1050" y="10" width="50" height="50" as="geometry" />
        </mxCell>
        <mxCell id="2b4e8129b02d487f-3" value="Extract Data" style="swimlane;html=1;startSize=20;horizontal=0;fillColor=#d5e8d4;strokeColor=#82b366;" parent="2b4e8129b02d487f-1" vertex="1">
          <mxGeometry y="170" width="1140" height="150" as="geometry" />
        </mxCell>
        <mxCell id="lynWyJ27UmlPL52xSpIG-29" style="edgeStyle=orthogonalEdgeStyle;rounded=0;orthogonalLoop=1;jettySize=auto;html=1;exitX=1;exitY=0.5;exitDx=0;exitDy=0;entryX=0;entryY=0.5;entryDx=0;entryDy=0;" parent="2b4e8129b02d487f-3" source="lynWyJ27UmlPL52xSpIG-27" target="lynWyJ27UmlPL52xSpIG-28" edge="1">
          <mxGeometry relative="1" as="geometry" />
        </mxCell>
        <mxCell id="lynWyJ27UmlPL52xSpIG-27" value="Initialize Appd" style="ellipse;whiteSpace=wrap;html=1;rounded=0;shadow=0;labelBackgroundColor=none;strokeWidth=1;fontFamily=Verdana;fontSize=8;align=center;fillColor=#dae8fc;strokeColor=#6c8ebf;fontStyle=1" parent="2b4e8129b02d487f-3" vertex="1">
          <mxGeometry x="30" y="20" width="50" height="50" as="geometry" />
        </mxCell>
        <mxCell id="lynWyJ27UmlPL52xSpIG-32" style="edgeStyle=orthogonalEdgeStyle;rounded=0;orthogonalLoop=1;jettySize=auto;html=1;exitX=1;exitY=0.5;exitDx=0;exitDy=0;entryX=0;entryY=0.5;entryDx=0;entryDy=0;" parent="2b4e8129b02d487f-3" source="lynWyJ27UmlPL52xSpIG-28" target="lynWyJ27UmlPL52xSpIG-31" edge="1">
          <mxGeometry relative="1" as="geometry" />
        </mxCell>
        <mxCell id="lynWyJ27UmlPL52xSpIG-28" value="Click Work Items" style="rounded=1;whiteSpace=wrap;html=1;shadow=0;labelBackgroundColor=none;strokeWidth=1;fontFamily=Verdana;fontSize=8;align=center;fillColor=#d5e8d4;strokeColor=#82b366;fontStyle=1" parent="2b4e8129b02d487f-3" vertex="1">
          <mxGeometry x="120" y="26.5" width="70" height="37" as="geometry" />
        </mxCell>
        <mxCell id="lynWyJ27UmlPL52xSpIG-34" value="No" style="edgeStyle=orthogonalEdgeStyle;rounded=0;orthogonalLoop=1;jettySize=auto;html=1;exitX=0.5;exitY=1;exitDx=0;exitDy=0;entryX=0.5;entryY=0;entryDx=0;entryDy=0;fontStyle=1" parent="2b4e8129b02d487f-3" source="lynWyJ27UmlPL52xSpIG-31" target="lynWyJ27UmlPL52xSpIG-33" edge="1">
          <mxGeometry relative="1" as="geometry" />
        </mxCell>
        <mxCell id="lynWyJ27UmlPL52xSpIG-36" value="Yes" style="edgeStyle=orthogonalEdgeStyle;rounded=0;orthogonalLoop=1;jettySize=auto;html=1;exitX=1;exitY=0.5;exitDx=0;exitDy=0;entryX=0;entryY=0.5;entryDx=0;entryDy=0;fontStyle=1" parent="2b4e8129b02d487f-3" source="lynWyJ27UmlPL52xSpIG-31" target="lynWyJ27UmlPL52xSpIG-35" edge="1">
          <mxGeometry relative="1" as="geometry" />
        </mxCell>
        <mxCell id="lynWyJ27UmlPL52xSpIG-31" value="Work Items Existed ?" style="rhombus;whiteSpace=wrap;html=1;fillColor=#e1d5e7;strokeColor=#9673a6;fontSize=7;fontStyle=1" parent="2b4e8129b02d487f-3" vertex="1">
          <mxGeometry x="230" y="15" width="60" height="60" as="geometry" />
        </mxCell>
        <mxCell id="lynWyJ27UmlPL52xSpIG-33" value="BE04" style="ellipse;whiteSpace=wrap;html=1;fontStyle=1;fillColor=#e51400;fontColor=#ffffff;strokeColor=#B20000;" parent="2b4e8129b02d487f-3" vertex="1">
          <mxGeometry x="235" y="110" width="50" height="30" as="geometry" />
        </mxCell>
        <mxCell id="lynWyJ27UmlPL52xSpIG-38" style="edgeStyle=orthogonalEdgeStyle;rounded=0;orthogonalLoop=1;jettySize=auto;html=1;exitX=1;exitY=0.5;exitDx=0;exitDy=0;entryX=0;entryY=0.5;entryDx=0;entryDy=0;" parent="2b4e8129b02d487f-3" source="lynWyJ27UmlPL52xSpIG-35" edge="1">
          <mxGeometry relative="1" as="geometry">
            <mxPoint x="460" y="45" as="targetPoint" />
          </mxGeometry>
        </mxCell>
        <mxCell id="lynWyJ27UmlPL52xSpIG-35" value="Extract&amp;nbsp; Data" style="rounded=1;whiteSpace=wrap;html=1;shadow=0;labelBackgroundColor=none;strokeWidth=1;fontFamily=Verdana;fontSize=8;align=center;fillColor=#d5e8d4;strokeColor=#82b366;fontStyle=1" parent="2b4e8129b02d487f-3" vertex="1">
          <mxGeometry x="350" y="26.5" width="70" height="37" as="geometry" />
        </mxCell>
        <mxCell id="lynWyJ27UmlPL52xSpIG-40" value="Yes" style="edgeStyle=orthogonalEdgeStyle;rounded=0;orthogonalLoop=1;jettySize=auto;html=1;exitX=1;exitY=0.5;exitDx=0;exitDy=0;entryX=0;entryY=0.5;entryDx=0;entryDy=0;fontStyle=1" parent="2b4e8129b02d487f-3" source="qDvnlJ15DeF9PJ7AHZqQ-1" target="lynWyJ27UmlPL52xSpIG-39" edge="1">
          <mxGeometry relative="1" as="geometry">
            <mxPoint x="530" y="45" as="sourcePoint" />
          </mxGeometry>
        </mxCell>
        <mxCell id="lynWyJ27UmlPL52xSpIG-39" value="Dispatch Data to queue" style="ellipse;whiteSpace=wrap;html=1;rounded=0;shadow=0;labelBackgroundColor=none;strokeWidth=1;fontFamily=Verdana;fontSize=8;align=center;fillColor=#ffe6cc;strokeColor=#d79b00;fontStyle=1" parent="2b4e8129b02d487f-3" vertex="1">
          <mxGeometry x="590" y="15" width="60" height="60" as="geometry" />
        </mxCell>
        <mxCell id="qDvnlJ15DeF9PJ7AHZqQ-9" value="No" style="edgeStyle=orthogonalEdgeStyle;rounded=0;orthogonalLoop=1;jettySize=auto;html=1;exitX=0.5;exitY=1;exitDx=0;exitDy=0;entryX=0.5;entryY=0;entryDx=0;entryDy=0;fontStyle=1" edge="1" parent="2b4e8129b02d487f-3" source="qDvnlJ15DeF9PJ7AHZqQ-1" target="qDvnlJ15DeF9PJ7AHZqQ-8">
          <mxGeometry relative="1" as="geometry" />
        </mxCell>
        <mxCell id="qDvnlJ15DeF9PJ7AHZqQ-1" value="Check for&amp;nbsp;&lt;div&gt;WI1 items existed ?&lt;/div&gt;" style="rhombus;whiteSpace=wrap;html=1;fillColor=#e1d5e7;strokeColor=#9673a6;fontSize=7;fontStyle=1" vertex="1" parent="2b4e8129b02d487f-3">
          <mxGeometry x="460" y="15" width="60" height="60" as="geometry" />
        </mxCell>
        <mxCell id="qDvnlJ15DeF9PJ7AHZqQ-8" value="BE05" style="ellipse;whiteSpace=wrap;html=1;fontStyle=1;fillColor=#e51400;fontColor=#ffffff;strokeColor=#B20000;" vertex="1" parent="2b4e8129b02d487f-3">
          <mxGeometry x="465" y="110" width="50" height="30" as="geometry" />
        </mxCell>
        <mxCell id="2b4e8129b02d487f-4" value="Dispatch Data to queue" style="swimlane;html=1;startSize=20;horizontal=0;fillColor=#ffe6cc;strokeColor=#d79b00;" parent="2b4e8129b02d487f-1" vertex="1">
          <mxGeometry y="320" width="1140" height="190" as="geometry" />
        </mxCell>
        <mxCell id="lynWyJ27UmlPL52xSpIG-43" style="edgeStyle=orthogonalEdgeStyle;rounded=0;orthogonalLoop=1;jettySize=auto;html=1;exitX=1;exitY=0.5;exitDx=0;exitDy=0;entryX=0;entryY=0.5;entryDx=0;entryDy=0;" parent="2b4e8129b02d487f-4" source="lynWyJ27UmlPL52xSpIG-41" target="lynWyJ27UmlPL52xSpIG-42" edge="1">
          <mxGeometry relative="1" as="geometry" />
        </mxCell>
        <mxCell id="lynWyJ27UmlPL52xSpIG-41" value="Extract Data" style="ellipse;whiteSpace=wrap;html=1;rounded=0;shadow=0;labelBackgroundColor=none;strokeWidth=1;fontFamily=Verdana;fontSize=8;align=center;fillColor=#d5e8d4;strokeColor=#82b366;fontStyle=1" parent="2b4e8129b02d487f-4" vertex="1">
          <mxGeometry x="40" y="70" width="60" height="60" as="geometry" />
        </mxCell>
        <mxCell id="m5smUrmSbZEZKF3f6fhh-115" style="edgeStyle=orthogonalEdgeStyle;rounded=0;orthogonalLoop=1;jettySize=auto;html=1;exitX=1;exitY=0.5;exitDx=0;exitDy=0;entryX=0;entryY=0.5;entryDx=0;entryDy=0;" parent="2b4e8129b02d487f-4" source="lynWyJ27UmlPL52xSpIG-42" target="m5smUrmSbZEZKF3f6fhh-114" edge="1">
          <mxGeometry relative="1" as="geometry" />
        </mxCell>
        <mxCell id="lynWyJ27UmlPL52xSpIG-42" value="Add Data to WI1 Queue" style="rounded=1;whiteSpace=wrap;html=1;shadow=0;labelBackgroundColor=none;strokeWidth=1;fontFamily=Verdana;fontSize=8;align=center;fillColor=#ffe6cc;strokeColor=#d79b00;fontStyle=1" parent="2b4e8129b02d487f-4" vertex="1">
          <mxGeometry x="150" y="71.5" width="175" height="58.5" as="geometry" />
        </mxCell>
        <mxCell id="m5smUrmSbZEZKF3f6fhh-114" value="Get Queue Item" style="ellipse;whiteSpace=wrap;html=1;rounded=0;shadow=0;labelBackgroundColor=none;strokeWidth=1;fontFamily=Verdana;fontSize=8;align=center;fillColor=#d5e8d4;strokeColor=#82b366;fontStyle=1" parent="2b4e8129b02d487f-4" vertex="1">
          <mxGeometry x="380" y="71.5" width="60" height="60" as="geometry" />
        </mxCell>
        <mxCell id="m5smUrmSbZEZKF3f6fhh-96" value="Get Queue Item" style="swimlane;html=1;startSize=20;horizontal=0;fillColor=#d5e8d4;strokeColor=#82b366;" parent="2b4e8129b02d487f-1" vertex="1">
          <mxGeometry y="510" width="1140" height="200" as="geometry" />
        </mxCell>
        <mxCell id="m5smUrmSbZEZKF3f6fhh-97" style="edgeStyle=orthogonalEdgeStyle;rounded=0;orthogonalLoop=1;jettySize=auto;html=1;exitX=1;exitY=0.5;exitDx=0;exitDy=0;entryX=0;entryY=0.5;entryDx=0;entryDy=0;" parent="m5smUrmSbZEZKF3f6fhh-96" source="m5smUrmSbZEZKF3f6fhh-98" target="m5smUrmSbZEZKF3f6fhh-100" edge="1">
          <mxGeometry relative="1" as="geometry" />
        </mxCell>
        <mxCell id="m5smUrmSbZEZKF3f6fhh-98" value="Initialize Apps" style="ellipse;whiteSpace=wrap;html=1;rounded=0;shadow=0;labelBackgroundColor=none;strokeWidth=1;fontFamily=Verdana;fontSize=8;align=center;fillColor=#dae8fc;strokeColor=#6c8ebf;fontStyle=1" parent="m5smUrmSbZEZKF3f6fhh-96" vertex="1">
          <mxGeometry x="30" y="20" width="50" height="50" as="geometry" />
        </mxCell>
        <mxCell id="m5smUrmSbZEZKF3f6fhh-99" style="edgeStyle=orthogonalEdgeStyle;rounded=0;orthogonalLoop=1;jettySize=auto;html=1;exitX=1;exitY=0.5;exitDx=0;exitDy=0;entryX=0;entryY=0.5;entryDx=0;entryDy=0;" parent="m5smUrmSbZEZKF3f6fhh-96" source="m5smUrmSbZEZKF3f6fhh-100" target="m5smUrmSbZEZKF3f6fhh-103" edge="1">
          <mxGeometry relative="1" as="geometry" />
        </mxCell>
        <mxCell id="m5smUrmSbZEZKF3f6fhh-100" value="Get Queue Item WI1" style="rounded=1;whiteSpace=wrap;html=1;shadow=0;labelBackgroundColor=none;strokeWidth=1;fontFamily=Verdana;fontSize=8;align=center;fillColor=#d5e8d4;strokeColor=#82b366;fontStyle=1" parent="m5smUrmSbZEZKF3f6fhh-96" vertex="1">
          <mxGeometry x="120" y="26.5" width="70" height="37" as="geometry" />
        </mxCell>
        <mxCell id="m5smUrmSbZEZKF3f6fhh-101" value="No" style="edgeStyle=orthogonalEdgeStyle;rounded=0;orthogonalLoop=1;jettySize=auto;html=1;exitX=0.5;exitY=1;exitDx=0;exitDy=0;entryX=0.5;entryY=0;entryDx=0;entryDy=0;fontStyle=1" parent="m5smUrmSbZEZKF3f6fhh-96" source="m5smUrmSbZEZKF3f6fhh-103" target="m5smUrmSbZEZKF3f6fhh-104" edge="1">
          <mxGeometry relative="1" as="geometry" />
        </mxCell>
        <mxCell id="m5smUrmSbZEZKF3f6fhh-102" value="Yes" style="edgeStyle=orthogonalEdgeStyle;rounded=0;orthogonalLoop=1;jettySize=auto;html=1;exitX=1;exitY=0.5;exitDx=0;exitDy=0;entryX=0;entryY=0.5;entryDx=0;entryDy=0;fontStyle=1" parent="m5smUrmSbZEZKF3f6fhh-96" source="m5smUrmSbZEZKF3f6fhh-103" edge="1">
          <mxGeometry relative="1" as="geometry">
            <mxPoint x="350" y="45" as="targetPoint" />
          </mxGeometry>
        </mxCell>
        <mxCell id="m5smUrmSbZEZKF3f6fhh-103" value="Item&amp;nbsp;&lt;div&gt;Existed ?&lt;/div&gt;" style="rhombus;whiteSpace=wrap;html=1;fillColor=#e1d5e7;strokeColor=#9673a6;fontSize=7;fontStyle=1" parent="m5smUrmSbZEZKF3f6fhh-96" vertex="1">
          <mxGeometry x="230" y="15" width="60" height="60" as="geometry" />
        </mxCell>
        <mxCell id="m5smUrmSbZEZKF3f6fhh-104" value="Send Mail Report" style="ellipse;whiteSpace=wrap;html=1;fontStyle=1;fillColor=#ffff88;strokeColor=#36393d;" parent="m5smUrmSbZEZKF3f6fhh-96" vertex="1">
          <mxGeometry x="227.5" y="130" width="65" height="60" as="geometry" />
        </mxCell>
        <mxCell id="m5smUrmSbZEZKF3f6fhh-105" value="Extract Account&amp;nbsp;&lt;div&gt;Data&amp;nbsp;&lt;/div&gt;" style="ellipse;whiteSpace=wrap;html=1;fontStyle=1;fillColor=#ffe6cc;strokeColor=#d79b00;" parent="m5smUrmSbZEZKF3f6fhh-96" vertex="1">
          <mxGeometry x="350" y="15" width="80" height="85" as="geometry" />
        </mxCell>
        <mxCell id="m5smUrmSbZEZKF3f6fhh-106" style="edgeStyle=orthogonalEdgeStyle;rounded=0;orthogonalLoop=1;jettySize=auto;html=1;exitX=1;exitY=0.5;exitDx=0;exitDy=0;entryX=0.5;entryY=1;entryDx=0;entryDy=0;" parent="m5smUrmSbZEZKF3f6fhh-96" source="m5smUrmSbZEZKF3f6fhh-107" target="m5smUrmSbZEZKF3f6fhh-100" edge="1">
          <mxGeometry relative="1" as="geometry" />
        </mxCell>
        <mxCell id="m5smUrmSbZEZKF3f6fhh-107" value="Update Work Item" style="ellipse;whiteSpace=wrap;html=1;rounded=0;shadow=0;labelBackgroundColor=none;strokeWidth=1;fontFamily=Verdana;fontSize=8;align=center;fillColor=#b0e3e6;strokeColor=#0e8088;fontStyle=1" parent="m5smUrmSbZEZKF3f6fhh-96" vertex="1">
          <mxGeometry x="30" y="90" width="50" height="50" as="geometry" />
        </mxCell>
        <mxCell id="m5smUrmSbZEZKF3f6fhh-108" value="Extract Account Data&amp;nbsp;" style="swimlane;html=1;startSize=20;horizontal=0;fillColor=#ffe6cc;strokeColor=#d79b00;" parent="2b4e8129b02d487f-1" vertex="1">
          <mxGeometry y="710" width="1140" height="150" as="geometry" />
        </mxCell>
        <mxCell id="m5smUrmSbZEZKF3f6fhh-109" style="edgeStyle=orthogonalEdgeStyle;rounded=0;orthogonalLoop=1;jettySize=auto;html=1;exitX=1;exitY=0.5;exitDx=0;exitDy=0;entryX=0;entryY=0.5;entryDx=0;entryDy=0;" parent="m5smUrmSbZEZKF3f6fhh-108" source="m5smUrmSbZEZKF3f6fhh-110" target="m5smUrmSbZEZKF3f6fhh-112" edge="1">
          <mxGeometry relative="1" as="geometry" />
        </mxCell>
        <mxCell id="m5smUrmSbZEZKF3f6fhh-110" value="Get Queue Item" style="ellipse;whiteSpace=wrap;html=1;rounded=0;shadow=0;labelBackgroundColor=none;strokeWidth=1;fontFamily=Verdana;fontSize=8;align=center;fillColor=#d5e8d4;strokeColor=#82b366;fontStyle=1" parent="m5smUrmSbZEZKF3f6fhh-108" vertex="1">
          <mxGeometry x="40" y="45" width="60" height="60" as="geometry" />
        </mxCell>
        <mxCell id="m5smUrmSbZEZKF3f6fhh-111" style="edgeStyle=orthogonalEdgeStyle;rounded=0;orthogonalLoop=1;jettySize=auto;html=1;exitX=1;exitY=0.5;exitDx=0;exitDy=0;entryX=0;entryY=0.5;entryDx=0;entryDy=0;" parent="m5smUrmSbZEZKF3f6fhh-108" source="m5smUrmSbZEZKF3f6fhh-112" target="m5smUrmSbZEZKF3f6fhh-113" edge="1">
          <mxGeometry relative="1" as="geometry" />
        </mxCell>
        <mxCell id="m5smUrmSbZEZKF3f6fhh-112" value="Extract CLient Id , Account Number , Account Amount to memory" style="rounded=1;whiteSpace=wrap;html=1;shadow=0;labelBackgroundColor=none;strokeWidth=1;fontFamily=Verdana;fontSize=8;align=center;fillColor=#ffe6cc;strokeColor=#d79b00;fontStyle=1" parent="m5smUrmSbZEZKF3f6fhh-108" vertex="1">
          <mxGeometry x="150" y="47.86999999999999" width="120" height="54.25" as="geometry" />
        </mxCell>
        <mxCell id="m5smUrmSbZEZKF3f6fhh-113" value="Search Clients" style="ellipse;whiteSpace=wrap;html=1;fontStyle=1;fillColor=#b1ddf0;strokeColor=#10739e;" parent="m5smUrmSbZEZKF3f6fhh-108" vertex="1">
          <mxGeometry x="350" y="32.5" width="80" height="85" as="geometry" />
        </mxCell>
        <mxCell id="m5smUrmSbZEZKF3f6fhh-199" value="Search Clients" style="swimlane;html=1;startSize=20;horizontal=0;fillColor=#b1ddf0;strokeColor=#10739e;" parent="2b4e8129b02d487f-1" vertex="1">
          <mxGeometry y="860" width="1140" height="200" as="geometry" />
        </mxCell>
        <mxCell id="m5smUrmSbZEZKF3f6fhh-200" style="edgeStyle=orthogonalEdgeStyle;rounded=0;orthogonalLoop=1;jettySize=auto;html=1;exitX=1;exitY=0.5;exitDx=0;exitDy=0;entryX=0;entryY=0.5;entryDx=0;entryDy=0;" parent="m5smUrmSbZEZKF3f6fhh-199" source="m5smUrmSbZEZKF3f6fhh-201" target="m5smUrmSbZEZKF3f6fhh-203" edge="1">
          <mxGeometry relative="1" as="geometry" />
        </mxCell>
        <mxCell id="m5smUrmSbZEZKF3f6fhh-201" value="Extract Account Data" style="ellipse;whiteSpace=wrap;html=1;rounded=0;shadow=0;labelBackgroundColor=none;strokeWidth=1;fontFamily=Verdana;fontSize=8;align=center;fillColor=#ffe6cc;strokeColor=#d79b00;fontStyle=1" parent="m5smUrmSbZEZKF3f6fhh-199" vertex="1">
          <mxGeometry x="40" y="45" width="60" height="60" as="geometry" />
        </mxCell>
        <mxCell id="m5smUrmSbZEZKF3f6fhh-202" style="edgeStyle=orthogonalEdgeStyle;rounded=0;orthogonalLoop=1;jettySize=auto;html=1;exitX=1;exitY=0.5;exitDx=0;exitDy=0;entryX=0;entryY=0.5;entryDx=0;entryDy=0;" parent="m5smUrmSbZEZKF3f6fhh-199" source="m5smUrmSbZEZKF3f6fhh-203" target="m5smUrmSbZEZKF3f6fhh-205" edge="1">
          <mxGeometry relative="1" as="geometry" />
        </mxCell>
        <mxCell id="m5smUrmSbZEZKF3f6fhh-203" value="Choose Clients tab" style="rounded=1;whiteSpace=wrap;html=1;shadow=0;labelBackgroundColor=none;strokeWidth=1;fontFamily=Verdana;fontSize=8;align=center;fillColor=#b1ddf0;strokeColor=#10739e;fontStyle=1" parent="m5smUrmSbZEZKF3f6fhh-199" vertex="1">
          <mxGeometry x="150" y="48.94" width="90" height="52.13" as="geometry" />
        </mxCell>
        <mxCell id="m5smUrmSbZEZKF3f6fhh-204" style="edgeStyle=orthogonalEdgeStyle;rounded=0;orthogonalLoop=1;jettySize=auto;html=1;exitX=1;exitY=0.5;exitDx=0;exitDy=0;entryX=0;entryY=0.5;entryDx=0;entryDy=0;" parent="m5smUrmSbZEZKF3f6fhh-199" source="m5smUrmSbZEZKF3f6fhh-205" target="m5smUrmSbZEZKF3f6fhh-207" edge="1">
          <mxGeometry relative="1" as="geometry" />
        </mxCell>
        <mxCell id="m5smUrmSbZEZKF3f6fhh-205" value="Choose Search for client option" style="rounded=1;whiteSpace=wrap;html=1;shadow=0;labelBackgroundColor=none;strokeWidth=1;fontFamily=Verdana;fontSize=8;align=center;fillColor=#b1ddf0;strokeColor=#10739e;fontStyle=1" parent="m5smUrmSbZEZKF3f6fhh-199" vertex="1">
          <mxGeometry x="270" y="48.940000000000055" width="90" height="52.13" as="geometry" />
        </mxCell>
        <mxCell id="m5smUrmSbZEZKF3f6fhh-206" style="edgeStyle=orthogonalEdgeStyle;rounded=0;orthogonalLoop=1;jettySize=auto;html=1;exitX=1;exitY=0.5;exitDx=0;exitDy=0;entryX=0;entryY=0.5;entryDx=0;entryDy=0;" parent="m5smUrmSbZEZKF3f6fhh-199" source="m5smUrmSbZEZKF3f6fhh-207" target="m5smUrmSbZEZKF3f6fhh-209" edge="1">
          <mxGeometry relative="1" as="geometry" />
        </mxCell>
        <mxCell id="m5smUrmSbZEZKF3f6fhh-207" value="Choose By Client Id" style="rounded=1;whiteSpace=wrap;html=1;shadow=0;labelBackgroundColor=none;strokeWidth=1;fontFamily=Verdana;fontSize=8;align=center;fillColor=#b1ddf0;strokeColor=#10739e;fontStyle=1" parent="m5smUrmSbZEZKF3f6fhh-199" vertex="1">
          <mxGeometry x="390" y="48.940000000000005" width="90" height="52.13" as="geometry" />
        </mxCell>
        <mxCell id="m5smUrmSbZEZKF3f6fhh-208" style="edgeStyle=orthogonalEdgeStyle;rounded=0;orthogonalLoop=1;jettySize=auto;html=1;exitX=1;exitY=0.5;exitDx=0;exitDy=0;entryX=0;entryY=0.5;entryDx=0;entryDy=0;" parent="m5smUrmSbZEZKF3f6fhh-199" source="m5smUrmSbZEZKF3f6fhh-209" target="m5smUrmSbZEZKF3f6fhh-211" edge="1">
          <mxGeometry relative="1" as="geometry" />
        </mxCell>
        <mxCell id="m5smUrmSbZEZKF3f6fhh-209" value="Put Extracted Client Id in the Text area" style="rounded=1;whiteSpace=wrap;html=1;shadow=0;labelBackgroundColor=none;strokeWidth=1;fontFamily=Verdana;fontSize=8;align=center;fillColor=#b1ddf0;strokeColor=#10739e;fontStyle=1" parent="m5smUrmSbZEZKF3f6fhh-199" vertex="1">
          <mxGeometry x="510" y="48.92999999999995" width="90" height="52.13" as="geometry" />
        </mxCell>
        <mxCell id="m5smUrmSbZEZKF3f6fhh-210" style="edgeStyle=orthogonalEdgeStyle;rounded=0;orthogonalLoop=1;jettySize=auto;html=1;exitX=1;exitY=0.5;exitDx=0;exitDy=0;" parent="m5smUrmSbZEZKF3f6fhh-199" source="m5smUrmSbZEZKF3f6fhh-211" target="m5smUrmSbZEZKF3f6fhh-213" edge="1">
          <mxGeometry relative="1" as="geometry" />
        </mxCell>
        <mxCell id="m5smUrmSbZEZKF3f6fhh-211" value="Check the include inactive clients checkbox" style="rounded=1;whiteSpace=wrap;html=1;shadow=0;labelBackgroundColor=none;strokeWidth=1;fontFamily=Verdana;fontSize=8;align=center;fillColor=#b1ddf0;strokeColor=#10739e;fontStyle=1" parent="m5smUrmSbZEZKF3f6fhh-199" vertex="1">
          <mxGeometry x="620" y="48.92999999999995" width="90" height="52.13" as="geometry" />
        </mxCell>
        <mxCell id="m5smUrmSbZEZKF3f6fhh-212" style="edgeStyle=orthogonalEdgeStyle;rounded=0;orthogonalLoop=1;jettySize=auto;html=1;exitX=1;exitY=0.5;exitDx=0;exitDy=0;entryX=0;entryY=0.5;entryDx=0;entryDy=0;" parent="m5smUrmSbZEZKF3f6fhh-199" source="m5smUrmSbZEZKF3f6fhh-213" target="m5smUrmSbZEZKF3f6fhh-216" edge="1">
          <mxGeometry relative="1" as="geometry" />
        </mxCell>
        <mxCell id="m5smUrmSbZEZKF3f6fhh-213" value="Click Search&lt;div&gt;&amp;nbsp;Button&lt;/div&gt;" style="rounded=1;whiteSpace=wrap;html=1;shadow=0;labelBackgroundColor=none;strokeWidth=1;fontFamily=Verdana;fontSize=8;align=center;fillColor=#b1ddf0;strokeColor=#10739e;fontStyle=1" parent="m5smUrmSbZEZKF3f6fhh-199" vertex="1">
          <mxGeometry x="730" y="48.940000000000055" width="90" height="52.13" as="geometry" />
        </mxCell>
        <mxCell id="m5smUrmSbZEZKF3f6fhh-214" value="No" style="edgeStyle=orthogonalEdgeStyle;rounded=0;orthogonalLoop=1;jettySize=auto;html=1;exitX=0.5;exitY=1;exitDx=0;exitDy=0;entryX=0.5;entryY=0;entryDx=0;entryDy=0;fontStyle=1" parent="m5smUrmSbZEZKF3f6fhh-199" source="m5smUrmSbZEZKF3f6fhh-216" target="m5smUrmSbZEZKF3f6fhh-217" edge="1">
          <mxGeometry relative="1" as="geometry" />
        </mxCell>
        <mxCell id="m5smUrmSbZEZKF3f6fhh-215" value="Yes" style="edgeStyle=orthogonalEdgeStyle;rounded=0;orthogonalLoop=1;jettySize=auto;html=1;exitX=1;exitY=0.5;exitDx=0;exitDy=0;entryX=0;entryY=0.5;entryDx=0;entryDy=0;fontStyle=1" parent="m5smUrmSbZEZKF3f6fhh-199" source="m5smUrmSbZEZKF3f6fhh-216" target="m5smUrmSbZEZKF3f6fhh-218" edge="1">
          <mxGeometry relative="1" as="geometry" />
        </mxCell>
        <mxCell id="m5smUrmSbZEZKF3f6fhh-216" value="Existed&amp;nbsp;&lt;div&gt;Client ?&lt;/div&gt;" style="rhombus;whiteSpace=wrap;html=1;fillColor=#e1d5e7;strokeColor=#9673a6;fontSize=7;fontStyle=1" parent="m5smUrmSbZEZKF3f6fhh-199" vertex="1">
          <mxGeometry x="850" y="44.99000000000001" width="60" height="60" as="geometry" />
        </mxCell>
        <mxCell id="m5smUrmSbZEZKF3f6fhh-217" value="BE02" style="ellipse;whiteSpace=wrap;html=1;fontStyle=1;fillColor=#e51400;fontColor=#ffffff;strokeColor=#B20000;" parent="m5smUrmSbZEZKF3f6fhh-199" vertex="1">
          <mxGeometry x="855" y="160" width="50" height="30" as="geometry" />
        </mxCell>
        <mxCell id="m5smUrmSbZEZKF3f6fhh-218" value="Search CLient Accounts" style="ellipse;whiteSpace=wrap;html=1;rounded=0;shadow=0;labelBackgroundColor=none;strokeWidth=1;fontFamily=Verdana;fontSize=8;align=center;fillColor=#bac8d3;strokeColor=#23445d;fontStyle=1" parent="m5smUrmSbZEZKF3f6fhh-199" vertex="1">
          <mxGeometry x="980" y="44.99000000000005" width="60" height="60" as="geometry" />
        </mxCell>
        <mxCell id="m5smUrmSbZEZKF3f6fhh-219" value="Search Client Accounts" style="swimlane;html=1;startSize=20;horizontal=0;fillColor=#bac8d3;strokeColor=#23445d;" parent="2b4e8129b02d487f-1" vertex="1">
          <mxGeometry y="1060" width="1140" height="200" as="geometry" />
        </mxCell>
        <mxCell id="m5smUrmSbZEZKF3f6fhh-220" style="edgeStyle=orthogonalEdgeStyle;rounded=0;orthogonalLoop=1;jettySize=auto;html=1;exitX=1;exitY=0.5;exitDx=0;exitDy=0;entryX=0;entryY=0.5;entryDx=0;entryDy=0;" parent="m5smUrmSbZEZKF3f6fhh-219" source="m5smUrmSbZEZKF3f6fhh-221" target="m5smUrmSbZEZKF3f6fhh-223" edge="1">
          <mxGeometry relative="1" as="geometry" />
        </mxCell>
        <mxCell id="m5smUrmSbZEZKF3f6fhh-221" value="Search CLients" style="ellipse;whiteSpace=wrap;html=1;rounded=0;shadow=0;labelBackgroundColor=none;strokeWidth=1;fontFamily=Verdana;fontSize=8;align=center;fillColor=#b1ddf0;strokeColor=#10739e;fontStyle=1" parent="m5smUrmSbZEZKF3f6fhh-219" vertex="1">
          <mxGeometry x="40" y="45" width="60" height="60" as="geometry" />
        </mxCell>
        <mxCell id="m5smUrmSbZEZKF3f6fhh-222" style="edgeStyle=orthogonalEdgeStyle;rounded=0;orthogonalLoop=1;jettySize=auto;html=1;exitX=1;exitY=0.5;exitDx=0;exitDy=0;entryX=0;entryY=0.5;entryDx=0;entryDy=0;" parent="m5smUrmSbZEZKF3f6fhh-219" source="m5smUrmSbZEZKF3f6fhh-223" target="m5smUrmSbZEZKF3f6fhh-225" edge="1">
          <mxGeometry relative="1" as="geometry" />
        </mxCell>
        <mxCell id="m5smUrmSbZEZKF3f6fhh-223" value="Double click on Client&amp;nbsp; Id record" style="rounded=1;whiteSpace=wrap;html=1;shadow=0;labelBackgroundColor=none;strokeWidth=1;fontFamily=Verdana;fontSize=8;align=center;fillColor=#bac8d3;strokeColor=#23445d;fontStyle=1" parent="m5smUrmSbZEZKF3f6fhh-219" vertex="1">
          <mxGeometry x="150" y="48.94" width="90" height="52.13" as="geometry" />
        </mxCell>
        <mxCell id="m5smUrmSbZEZKF3f6fhh-224" style="edgeStyle=orthogonalEdgeStyle;rounded=0;orthogonalLoop=1;jettySize=auto;html=1;exitX=1;exitY=0.5;exitDx=0;exitDy=0;entryX=0;entryY=0.5;entryDx=0;entryDy=0;" parent="m5smUrmSbZEZKF3f6fhh-219" source="m5smUrmSbZEZKF3f6fhh-225" edge="1">
          <mxGeometry relative="1" as="geometry">
            <mxPoint x="390" y="75.00500000000011" as="targetPoint" />
          </mxGeometry>
        </mxCell>
        <mxCell id="m5smUrmSbZEZKF3f6fhh-225" value="Click Client Accounts button" style="rounded=1;whiteSpace=wrap;html=1;shadow=0;labelBackgroundColor=none;strokeWidth=1;fontFamily=Verdana;fontSize=8;align=center;fillColor=#bac8d3;strokeColor=#23445d;fontStyle=1" parent="m5smUrmSbZEZKF3f6fhh-219" vertex="1">
          <mxGeometry x="270" y="48.940000000000055" width="90" height="52.13" as="geometry" />
        </mxCell>
        <mxCell id="m5smUrmSbZEZKF3f6fhh-226" value="Yes" style="edgeStyle=orthogonalEdgeStyle;rounded=0;orthogonalLoop=1;jettySize=auto;html=1;exitX=1;exitY=0.5;exitDx=0;exitDy=0;entryX=0;entryY=0.5;entryDx=0;entryDy=0;fontStyle=1" parent="m5smUrmSbZEZKF3f6fhh-219" source="m5smUrmSbZEZKF3f6fhh-229" edge="1">
          <mxGeometry relative="1" as="geometry">
            <mxPoint x="480" y="75.00500000000011" as="sourcePoint" />
            <mxPoint x="570" y="74.98500000000013" as="targetPoint" />
          </mxGeometry>
        </mxCell>
        <mxCell id="m5smUrmSbZEZKF3f6fhh-227" value="Compare Sums" style="ellipse;whiteSpace=wrap;html=1;rounded=0;shadow=0;labelBackgroundColor=none;strokeWidth=1;fontFamily=Verdana;fontSize=8;align=center;fontStyle=1" parent="m5smUrmSbZEZKF3f6fhh-219" vertex="1">
          <mxGeometry x="570" y="37.47" width="80" height="75.02" as="geometry" />
        </mxCell>
        <mxCell id="m5smUrmSbZEZKF3f6fhh-228" value="No" style="edgeStyle=orthogonalEdgeStyle;rounded=0;orthogonalLoop=1;jettySize=auto;html=1;exitX=0.5;exitY=1;exitDx=0;exitDy=0;entryX=0.5;entryY=0;entryDx=0;entryDy=0;fontStyle=1" parent="m5smUrmSbZEZKF3f6fhh-219" source="m5smUrmSbZEZKF3f6fhh-229" target="m5smUrmSbZEZKF3f6fhh-230" edge="1">
          <mxGeometry relative="1" as="geometry" />
        </mxCell>
        <mxCell id="m5smUrmSbZEZKF3f6fhh-229" value="Account with extracted client account number existed" style="rhombus;whiteSpace=wrap;html=1;fillColor=#e1d5e7;strokeColor=#9673a6;fontSize=7;fontStyle=1" parent="m5smUrmSbZEZKF3f6fhh-219" vertex="1">
          <mxGeometry x="390" y="32.489999999999995" width="80" height="84.99" as="geometry" />
        </mxCell>
        <mxCell id="m5smUrmSbZEZKF3f6fhh-230" value="BE03" style="ellipse;whiteSpace=wrap;html=1;fontStyle=1;fillColor=#e51400;fontColor=#ffffff;strokeColor=#B20000;" parent="m5smUrmSbZEZKF3f6fhh-219" vertex="1">
          <mxGeometry x="405" y="160" width="50" height="30" as="geometry" />
        </mxCell>
        <mxCell id="m5smUrmSbZEZKF3f6fhh-231" value="Compare Sums&amp;nbsp;" style="swimlane;html=1;startSize=20;horizontal=0;" parent="2b4e8129b02d487f-1" vertex="1">
          <mxGeometry y="1260" width="1140" height="200" as="geometry" />
        </mxCell>
        <mxCell id="m5smUrmSbZEZKF3f6fhh-232" style="edgeStyle=orthogonalEdgeStyle;rounded=0;orthogonalLoop=1;jettySize=auto;html=1;exitX=1;exitY=0.5;exitDx=0;exitDy=0;entryX=0;entryY=0.5;entryDx=0;entryDy=0;" parent="m5smUrmSbZEZKF3f6fhh-231" source="m5smUrmSbZEZKF3f6fhh-233" target="m5smUrmSbZEZKF3f6fhh-235" edge="1">
          <mxGeometry relative="1" as="geometry" />
        </mxCell>
        <mxCell id="m5smUrmSbZEZKF3f6fhh-233" value="Search Client Accounts" style="ellipse;whiteSpace=wrap;html=1;rounded=0;shadow=0;labelBackgroundColor=none;strokeWidth=1;fontFamily=Verdana;fontSize=8;align=center;fillColor=#bac8d3;strokeColor=#23445d;fontStyle=1" parent="m5smUrmSbZEZKF3f6fhh-231" vertex="1">
          <mxGeometry x="40" y="45" width="60" height="60" as="geometry" />
        </mxCell>
        <mxCell id="m5smUrmSbZEZKF3f6fhh-234" style="edgeStyle=orthogonalEdgeStyle;rounded=0;orthogonalLoop=1;jettySize=auto;html=1;exitX=1;exitY=0.5;exitDx=0;exitDy=0;entryX=0;entryY=0.5;entryDx=0;entryDy=0;" parent="m5smUrmSbZEZKF3f6fhh-231" source="m5smUrmSbZEZKF3f6fhh-235" target="m5smUrmSbZEZKF3f6fhh-237" edge="1">
          <mxGeometry relative="1" as="geometry" />
        </mxCell>
        <mxCell id="m5smUrmSbZEZKF3f6fhh-235" value="Double click on account with extracted account number" style="rounded=1;whiteSpace=wrap;html=1;shadow=0;labelBackgroundColor=none;strokeWidth=1;fontFamily=Verdana;fontSize=8;align=center;fontStyle=1" parent="m5smUrmSbZEZKF3f6fhh-231" vertex="1">
          <mxGeometry x="150" y="48.94" width="90" height="52.13" as="geometry" />
        </mxCell>
        <mxCell id="m5smUrmSbZEZKF3f6fhh-236" style="edgeStyle=orthogonalEdgeStyle;rounded=0;orthogonalLoop=1;jettySize=auto;html=1;exitX=1;exitY=0.5;exitDx=0;exitDy=0;entryX=0;entryY=0.5;entryDx=0;entryDy=0;" parent="m5smUrmSbZEZKF3f6fhh-231" source="m5smUrmSbZEZKF3f6fhh-237" edge="1">
          <mxGeometry relative="1" as="geometry">
            <mxPoint x="390" y="75.00500000000011" as="targetPoint" />
          </mxGeometry>
        </mxCell>
        <mxCell id="m5smUrmSbZEZKF3f6fhh-237" value="Click on Show All button" style="rounded=1;whiteSpace=wrap;html=1;shadow=0;labelBackgroundColor=none;strokeWidth=1;fontFamily=Verdana;fontSize=8;align=center;fontStyle=1" parent="m5smUrmSbZEZKF3f6fhh-231" vertex="1">
          <mxGeometry x="270" y="48.940000000000055" width="90" height="52.13" as="geometry" />
        </mxCell>
        <mxCell id="m5smUrmSbZEZKF3f6fhh-238" value="No" style="edgeStyle=orthogonalEdgeStyle;rounded=0;orthogonalLoop=1;jettySize=auto;html=1;exitX=1;exitY=0.5;exitDx=0;exitDy=0;entryX=0;entryY=0.5;entryDx=0;entryDy=0;fontStyle=1" parent="m5smUrmSbZEZKF3f6fhh-231" source="m5smUrmSbZEZKF3f6fhh-240" edge="1">
          <mxGeometry relative="1" as="geometry">
            <mxPoint x="480" y="75.00500000000011" as="sourcePoint" />
            <mxPoint x="570" y="74.98500000000013" as="targetPoint" />
          </mxGeometry>
        </mxCell>
        <mxCell id="m5smUrmSbZEZKF3f6fhh-239" value="Yes" style="edgeStyle=orthogonalEdgeStyle;rounded=0;orthogonalLoop=1;jettySize=auto;html=1;exitX=0.5;exitY=1;exitDx=0;exitDy=0;entryX=0.5;entryY=0;entryDx=0;entryDy=0;fontStyle=1" parent="m5smUrmSbZEZKF3f6fhh-231" source="m5smUrmSbZEZKF3f6fhh-240" target="m5smUrmSbZEZKF3f6fhh-241" edge="1">
          <mxGeometry relative="1" as="geometry" />
        </mxCell>
        <mxCell id="m5smUrmSbZEZKF3f6fhh-240" value="check no transactions&lt;div&gt;&amp;nbsp;found&lt;/div&gt;" style="rhombus;whiteSpace=wrap;html=1;fillColor=#e1d5e7;strokeColor=#9673a6;fontSize=7;fontStyle=1" parent="m5smUrmSbZEZKF3f6fhh-231" vertex="1">
          <mxGeometry x="390" y="32.489999999999995" width="80" height="84.99" as="geometry" />
        </mxCell>
        <mxCell id="m5smUrmSbZEZKF3f6fhh-241" value="BE02" style="ellipse;whiteSpace=wrap;html=1;fontStyle=1;fillColor=#e51400;fontColor=#ffffff;strokeColor=#B20000;" parent="m5smUrmSbZEZKF3f6fhh-231" vertex="1">
          <mxGeometry x="405" y="160" width="50" height="30" as="geometry" />
        </mxCell>
        <mxCell id="m5smUrmSbZEZKF3f6fhh-242" style="edgeStyle=orthogonalEdgeStyle;rounded=0;orthogonalLoop=1;jettySize=auto;html=1;exitX=1;exitY=0.5;exitDx=0;exitDy=0;entryX=0;entryY=0.5;entryDx=0;entryDy=0;" parent="m5smUrmSbZEZKF3f6fhh-231" source="m5smUrmSbZEZKF3f6fhh-243" target="m5smUrmSbZEZKF3f6fhh-245" edge="1">
          <mxGeometry relative="1" as="geometry" />
        </mxCell>
        <mxCell id="m5smUrmSbZEZKF3f6fhh-243" value="Sum All transactions amount" style="rounded=1;whiteSpace=wrap;html=1;shadow=0;labelBackgroundColor=none;strokeWidth=1;fontFamily=Verdana;fontSize=8;align=center;fontStyle=1" parent="m5smUrmSbZEZKF3f6fhh-231" vertex="1">
          <mxGeometry x="570" y="48.940000000000055" width="90" height="52.13" as="geometry" />
        </mxCell>
        <mxCell id="qDvnlJ15DeF9PJ7AHZqQ-11" style="edgeStyle=orthogonalEdgeStyle;rounded=0;orthogonalLoop=1;jettySize=auto;html=1;exitX=1;exitY=0.5;exitDx=0;exitDy=0;entryX=0;entryY=0.5;entryDx=0;entryDy=0;" edge="1" parent="m5smUrmSbZEZKF3f6fhh-231" source="m5smUrmSbZEZKF3f6fhh-245" target="qDvnlJ15DeF9PJ7AHZqQ-10">
          <mxGeometry relative="1" as="geometry" />
        </mxCell>
        <mxCell id="m5smUrmSbZEZKF3f6fhh-245" value="Save estimated sum in memory" style="rounded=1;whiteSpace=wrap;html=1;shadow=0;labelBackgroundColor=none;strokeWidth=1;fontFamily=Verdana;fontSize=8;align=center;fontStyle=1" parent="m5smUrmSbZEZKF3f6fhh-231" vertex="1">
          <mxGeometry x="680" y="48.94" width="90" height="52.13" as="geometry" />
        </mxCell>
        <mxCell id="m5smUrmSbZEZKF3f6fhh-246" value="Update Work Item" style="ellipse;whiteSpace=wrap;html=1;rounded=0;shadow=0;labelBackgroundColor=none;strokeWidth=1;fontFamily=Verdana;fontSize=8;align=center;fontStyle=1;fillColor=#b0e3e6;strokeColor=#0e8088;" parent="m5smUrmSbZEZKF3f6fhh-231" vertex="1">
          <mxGeometry x="940" y="37.49000000000001" width="80" height="75.02" as="geometry" />
        </mxCell>
        <mxCell id="qDvnlJ15DeF9PJ7AHZqQ-12" style="edgeStyle=orthogonalEdgeStyle;rounded=0;orthogonalLoop=1;jettySize=auto;html=1;exitX=1;exitY=0.5;exitDx=0;exitDy=0;entryX=0;entryY=0.5;entryDx=0;entryDy=0;" edge="1" parent="m5smUrmSbZEZKF3f6fhh-231" source="qDvnlJ15DeF9PJ7AHZqQ-10" target="m5smUrmSbZEZKF3f6fhh-246">
          <mxGeometry relative="1" as="geometry" />
        </mxCell>
        <mxCell id="qDvnlJ15DeF9PJ7AHZqQ-10" value="Control app tabs" style="rounded=1;whiteSpace=wrap;html=1;shadow=0;labelBackgroundColor=none;strokeWidth=1;fontFamily=Verdana;fontSize=8;align=center;fontStyle=1" vertex="1" parent="m5smUrmSbZEZKF3f6fhh-231">
          <mxGeometry x="800" y="48.92000000000007" width="90" height="52.13" as="geometry" />
        </mxCell>
        <mxCell id="m5smUrmSbZEZKF3f6fhh-247" value="Update Work Item" style="swimlane;html=1;startSize=20;horizontal=0;fillColor=#b0e3e6;strokeColor=#0e8088;" parent="2b4e8129b02d487f-1" vertex="1">
          <mxGeometry y="1460" width="1140" height="220" as="geometry" />
        </mxCell>
        <mxCell id="m5smUrmSbZEZKF3f6fhh-248" style="edgeStyle=orthogonalEdgeStyle;rounded=0;orthogonalLoop=1;jettySize=auto;html=1;exitX=1;exitY=0.5;exitDx=0;exitDy=0;entryX=0;entryY=0.5;entryDx=0;entryDy=0;" parent="m5smUrmSbZEZKF3f6fhh-247" source="m5smUrmSbZEZKF3f6fhh-249" edge="1">
          <mxGeometry relative="1" as="geometry">
            <mxPoint x="149.99999999999977" y="75.00500000000056" as="targetPoint" />
          </mxGeometry>
        </mxCell>
        <mxCell id="m5smUrmSbZEZKF3f6fhh-249" value="Compare Sums" style="ellipse;whiteSpace=wrap;html=1;rounded=0;shadow=0;labelBackgroundColor=none;strokeWidth=1;fontFamily=Verdana;fontSize=8;align=center;fontStyle=1" parent="m5smUrmSbZEZKF3f6fhh-247" vertex="1">
          <mxGeometry x="40" y="45" width="60" height="60" as="geometry" />
        </mxCell>
        <mxCell id="m5smUrmSbZEZKF3f6fhh-250" value="&lt;span style=&quot;font-family: Verdana; font-size: 8px;&quot;&gt;Compare Estimated Sum with Account Amount&lt;/span&gt;" style="rhombus;whiteSpace=wrap;html=1;fillColor=#e1d5e7;strokeColor=#9673a6;fontSize=7;fontStyle=1" parent="m5smUrmSbZEZKF3f6fhh-247" vertex="1">
          <mxGeometry x="150" y="32.50999999999999" width="80" height="84.99" as="geometry" />
        </mxCell>
        <mxCell id="m5smUrmSbZEZKF3f6fhh-251" value="Not Equal" style="edgeStyle=orthogonalEdgeStyle;rounded=0;orthogonalLoop=1;jettySize=auto;html=1;exitX=0.5;exitY=1;exitDx=0;exitDy=0;entryX=0.5;entryY=0;entryDx=0;entryDy=0;fontStyle=1" parent="m5smUrmSbZEZKF3f6fhh-247" target="m5smUrmSbZEZKF3f6fhh-253" edge="1">
          <mxGeometry relative="1" as="geometry">
            <mxPoint x="190" y="117.50000000000045" as="sourcePoint" />
          </mxGeometry>
        </mxCell>
        <mxCell id="m5smUrmSbZEZKF3f6fhh-252" style="edgeStyle=orthogonalEdgeStyle;rounded=0;orthogonalLoop=1;jettySize=auto;html=1;exitX=1;exitY=0.5;exitDx=0;exitDy=0;entryX=0;entryY=0.5;entryDx=0;entryDy=0;" parent="m5smUrmSbZEZKF3f6fhh-247" source="m5smUrmSbZEZKF3f6fhh-253" target="m5smUrmSbZEZKF3f6fhh-258" edge="1">
          <mxGeometry relative="1" as="geometry" />
        </mxCell>
        <mxCell id="m5smUrmSbZEZKF3f6fhh-253" value="BE03" style="ellipse;whiteSpace=wrap;html=1;fontStyle=1;fillColor=#e51400;fontColor=#ffffff;strokeColor=#B20000;" parent="m5smUrmSbZEZKF3f6fhh-247" vertex="1">
          <mxGeometry x="165" y="160" width="50" height="30" as="geometry" />
        </mxCell>
        <mxCell id="m5smUrmSbZEZKF3f6fhh-254" style="edgeStyle=orthogonalEdgeStyle;rounded=0;orthogonalLoop=1;jettySize=auto;html=1;exitX=1;exitY=0.5;exitDx=0;exitDy=0;entryX=0;entryY=0.5;entryDx=0;entryDy=0;" parent="m5smUrmSbZEZKF3f6fhh-247" source="m5smUrmSbZEZKF3f6fhh-255" target="m5smUrmSbZEZKF3f6fhh-260" edge="1">
          <mxGeometry relative="1" as="geometry" />
        </mxCell>
        <mxCell id="m5smUrmSbZEZKF3f6fhh-255" value="Click On Update Work Item" style="rounded=1;whiteSpace=wrap;html=1;shadow=0;labelBackgroundColor=none;strokeWidth=1;fontFamily=Verdana;fontSize=8;align=center;fontStyle=1;fillColor=#b0e3e6;strokeColor=#0e8088;" parent="m5smUrmSbZEZKF3f6fhh-247" vertex="1">
          <mxGeometry x="325" y="48.930000000000064" width="90" height="52.13" as="geometry" />
        </mxCell>
        <mxCell id="m5smUrmSbZEZKF3f6fhh-256" value="Equal" style="edgeStyle=orthogonalEdgeStyle;rounded=0;orthogonalLoop=1;jettySize=auto;html=1;exitX=1;exitY=0.5;exitDx=0;exitDy=0;entryX=0;entryY=0.5;entryDx=0;entryDy=0;fontStyle=1" parent="m5smUrmSbZEZKF3f6fhh-247" source="m5smUrmSbZEZKF3f6fhh-250" target="m5smUrmSbZEZKF3f6fhh-255" edge="1">
          <mxGeometry relative="1" as="geometry">
            <mxPoint x="240" y="80.00500000000056" as="sourcePoint" />
            <mxPoint x="320" y="80" as="targetPoint" />
          </mxGeometry>
        </mxCell>
        <mxCell id="m5smUrmSbZEZKF3f6fhh-257" style="edgeStyle=orthogonalEdgeStyle;rounded=0;orthogonalLoop=1;jettySize=auto;html=1;exitX=1;exitY=0.5;exitDx=0;exitDy=0;entryX=0;entryY=0.5;entryDx=0;entryDy=0;" parent="m5smUrmSbZEZKF3f6fhh-247" source="m5smUrmSbZEZKF3f6fhh-258" target="m5smUrmSbZEZKF3f6fhh-267" edge="1">
          <mxGeometry relative="1" as="geometry" />
        </mxCell>
        <mxCell id="m5smUrmSbZEZKF3f6fhh-258" value="Click On Update Work Item" style="rounded=1;whiteSpace=wrap;html=1;shadow=0;labelBackgroundColor=none;strokeWidth=1;fontFamily=Verdana;fontSize=8;align=center;fontStyle=1;fillColor=#b0e3e6;strokeColor=#0e8088;" parent="m5smUrmSbZEZKF3f6fhh-247" vertex="1">
          <mxGeometry x="260" y="148.93999999999988" width="90" height="52.13" as="geometry" />
        </mxCell>
        <mxCell id="m5smUrmSbZEZKF3f6fhh-259" style="edgeStyle=orthogonalEdgeStyle;rounded=0;orthogonalLoop=1;jettySize=auto;html=1;exitX=1;exitY=0.5;exitDx=0;exitDy=0;entryX=0;entryY=0.5;entryDx=0;entryDy=0;" parent="m5smUrmSbZEZKF3f6fhh-247" source="m5smUrmSbZEZKF3f6fhh-260" target="m5smUrmSbZEZKF3f6fhh-262" edge="1">
          <mxGeometry relative="1" as="geometry" />
        </mxCell>
        <mxCell id="m5smUrmSbZEZKF3f6fhh-260" value="Change Status to Completed" style="rounded=1;whiteSpace=wrap;html=1;shadow=0;labelBackgroundColor=none;strokeWidth=1;fontFamily=Verdana;fontSize=8;align=center;fontStyle=1;fillColor=#b0e3e6;strokeColor=#0e8088;" parent="m5smUrmSbZEZKF3f6fhh-247" vertex="1">
          <mxGeometry x="450" y="48.940000000000055" width="90" height="52.13" as="geometry" />
        </mxCell>
        <mxCell id="m5smUrmSbZEZKF3f6fhh-261" style="edgeStyle=orthogonalEdgeStyle;rounded=0;orthogonalLoop=1;jettySize=auto;html=1;exitX=1;exitY=0.5;exitDx=0;exitDy=0;entryX=0;entryY=0.5;entryDx=0;entryDy=0;" parent="m5smUrmSbZEZKF3f6fhh-247" source="m5smUrmSbZEZKF3f6fhh-262" target="m5smUrmSbZEZKF3f6fhh-264" edge="1">
          <mxGeometry relative="1" as="geometry" />
        </mxCell>
        <mxCell id="m5smUrmSbZEZKF3f6fhh-262" value="Add Comment &quot;Account Match&quot;" style="rounded=1;whiteSpace=wrap;html=1;shadow=0;labelBackgroundColor=none;strokeWidth=1;fontFamily=Verdana;fontSize=8;align=center;fontStyle=1;fillColor=#b0e3e6;strokeColor=#0e8088;" parent="m5smUrmSbZEZKF3f6fhh-247" vertex="1">
          <mxGeometry x="570" y="48.930000000000064" width="90" height="52.13" as="geometry" />
        </mxCell>
        <mxCell id="m5smUrmSbZEZKF3f6fhh-263" style="edgeStyle=orthogonalEdgeStyle;rounded=0;orthogonalLoop=1;jettySize=auto;html=1;exitX=1;exitY=0.5;exitDx=0;exitDy=0;entryX=0;entryY=0.5;entryDx=0;entryDy=0;" parent="m5smUrmSbZEZKF3f6fhh-247" source="m5smUrmSbZEZKF3f6fhh-264" target="m5smUrmSbZEZKF3f6fhh-265" edge="1">
          <mxGeometry relative="1" as="geometry" />
        </mxCell>
        <mxCell id="m5smUrmSbZEZKF3f6fhh-264" value="Click Update work Item button" style="rounded=1;whiteSpace=wrap;html=1;shadow=0;labelBackgroundColor=none;strokeWidth=1;fontFamily=Verdana;fontSize=8;align=center;fontStyle=1;fillColor=#b0e3e6;strokeColor=#0e8088;" parent="m5smUrmSbZEZKF3f6fhh-247" vertex="1">
          <mxGeometry x="690" y="48.930000000000064" width="90" height="52.13" as="geometry" />
        </mxCell>
        <mxCell id="m5smUrmSbZEZKF3f6fhh-265" value="Get Queue Item" style="ellipse;whiteSpace=wrap;html=1;rounded=0;shadow=0;labelBackgroundColor=none;strokeWidth=1;fontFamily=Verdana;fontSize=8;align=center;fontStyle=1;fillColor=#d5e8d4;strokeColor=#82b366;" parent="m5smUrmSbZEZKF3f6fhh-247" vertex="1">
          <mxGeometry x="830" y="45" width="60" height="60" as="geometry" />
        </mxCell>
        <mxCell id="m5smUrmSbZEZKF3f6fhh-266" style="edgeStyle=orthogonalEdgeStyle;rounded=0;orthogonalLoop=1;jettySize=auto;html=1;exitX=1;exitY=0.5;exitDx=0;exitDy=0;entryX=0;entryY=0.5;entryDx=0;entryDy=0;" parent="m5smUrmSbZEZKF3f6fhh-247" source="m5smUrmSbZEZKF3f6fhh-267" target="m5smUrmSbZEZKF3f6fhh-269" edge="1">
          <mxGeometry relative="1" as="geometry" />
        </mxCell>
        <mxCell id="m5smUrmSbZEZKF3f6fhh-267" value="Change Status to rejected" style="rounded=1;whiteSpace=wrap;html=1;shadow=0;labelBackgroundColor=none;strokeWidth=1;fontFamily=Verdana;fontSize=8;align=center;fontStyle=1;fillColor=#b0e3e6;strokeColor=#0e8088;" parent="m5smUrmSbZEZKF3f6fhh-247" vertex="1">
          <mxGeometry x="380" y="148.93000000000006" width="90" height="52.13" as="geometry" />
        </mxCell>
        <mxCell id="m5smUrmSbZEZKF3f6fhh-268" style="edgeStyle=orthogonalEdgeStyle;rounded=0;orthogonalLoop=1;jettySize=auto;html=1;exitX=1;exitY=0.5;exitDx=0;exitDy=0;entryX=0;entryY=0.5;entryDx=0;entryDy=0;" parent="m5smUrmSbZEZKF3f6fhh-247" source="m5smUrmSbZEZKF3f6fhh-269" target="m5smUrmSbZEZKF3f6fhh-271" edge="1">
          <mxGeometry relative="1" as="geometry" />
        </mxCell>
        <mxCell id="m5smUrmSbZEZKF3f6fhh-269" value="Add Comment&amp;nbsp;&lt;div&gt;&quot;Account mismatch&quot;&lt;/div&gt;" style="rounded=1;whiteSpace=wrap;html=1;shadow=0;labelBackgroundColor=none;strokeWidth=1;fontFamily=Verdana;fontSize=8;align=center;fontStyle=1;fillColor=#b0e3e6;strokeColor=#0e8088;" parent="m5smUrmSbZEZKF3f6fhh-247" vertex="1">
          <mxGeometry x="500" y="148.93000000000006" width="90" height="52.13" as="geometry" />
        </mxCell>
        <mxCell id="m5smUrmSbZEZKF3f6fhh-270" style="edgeStyle=orthogonalEdgeStyle;rounded=0;orthogonalLoop=1;jettySize=auto;html=1;exitX=1;exitY=0.5;exitDx=0;exitDy=0;entryX=0.5;entryY=1;entryDx=0;entryDy=0;" parent="m5smUrmSbZEZKF3f6fhh-247" source="m5smUrmSbZEZKF3f6fhh-271" target="m5smUrmSbZEZKF3f6fhh-265" edge="1">
          <mxGeometry relative="1" as="geometry" />
        </mxCell>
        <mxCell id="m5smUrmSbZEZKF3f6fhh-271" value="Click Update work Item button" style="rounded=1;whiteSpace=wrap;html=1;shadow=0;labelBackgroundColor=none;strokeWidth=1;fontFamily=Verdana;fontSize=8;align=center;fontStyle=1;fillColor=#b0e3e6;strokeColor=#0e8088;" parent="m5smUrmSbZEZKF3f6fhh-247" vertex="1">
          <mxGeometry x="640" y="148.94000000000005" width="90" height="52.13" as="geometry" />
        </mxCell>
        <mxCell id="m5smUrmSbZEZKF3f6fhh-272" value="Send mail report" style="swimlane;html=1;startSize=20;horizontal=0;fillColor=#ffff88;strokeColor=#36393d;" parent="2b4e8129b02d487f-1" vertex="1">
          <mxGeometry y="1680" width="1140" height="140" as="geometry" />
        </mxCell>
        <mxCell id="m5smUrmSbZEZKF3f6fhh-273" style="edgeStyle=orthogonalEdgeStyle;rounded=0;orthogonalLoop=1;jettySize=auto;html=1;exitX=1;exitY=0.5;exitDx=0;exitDy=0;entryX=0;entryY=0.5;entryDx=0;entryDy=0;" parent="m5smUrmSbZEZKF3f6fhh-272" source="m5smUrmSbZEZKF3f6fhh-274" target="m5smUrmSbZEZKF3f6fhh-276" edge="1">
          <mxGeometry relative="1" as="geometry" />
        </mxCell>
        <mxCell id="m5smUrmSbZEZKF3f6fhh-274" value="Get Queue Item" style="ellipse;whiteSpace=wrap;html=1;rounded=0;shadow=0;labelBackgroundColor=none;strokeWidth=1;fontFamily=Verdana;fontSize=8;align=center;fillColor=#d5e8d4;strokeColor=#82b366;fontStyle=1" parent="m5smUrmSbZEZKF3f6fhh-272" vertex="1">
          <mxGeometry x="40" y="30" width="60" height="60" as="geometry" />
        </mxCell>
        <mxCell id="m5smUrmSbZEZKF3f6fhh-275" style="edgeStyle=orthogonalEdgeStyle;rounded=0;orthogonalLoop=1;jettySize=auto;html=1;exitX=1;exitY=0.5;exitDx=0;exitDy=0;entryX=0;entryY=0.5;entryDx=0;entryDy=0;" parent="m5smUrmSbZEZKF3f6fhh-272" source="m5smUrmSbZEZKF3f6fhh-276" target="m5smUrmSbZEZKF3f6fhh-277" edge="1">
          <mxGeometry relative="1" as="geometry" />
        </mxCell>
        <mxCell id="m5smUrmSbZEZKF3f6fhh-276" value="Send Mail report of all items done" style="rounded=1;whiteSpace=wrap;html=1;shadow=0;labelBackgroundColor=none;strokeWidth=1;fontFamily=Verdana;fontSize=8;align=center;fillColor=#ffff88;strokeColor=#36393d;fontStyle=1" parent="m5smUrmSbZEZKF3f6fhh-272" vertex="1">
          <mxGeometry x="150" y="31.5" width="175" height="58.5" as="geometry" />
        </mxCell>
        <mxCell id="m5smUrmSbZEZKF3f6fhh-277" value="End&amp;nbsp;&lt;div&gt;Process&lt;/div&gt;" style="ellipse;whiteSpace=wrap;html=1;rounded=0;shadow=0;labelBackgroundColor=none;strokeWidth=1;fontFamily=Verdana;fontSize=8;align=center;fillColor=#ffcccc;strokeColor=#36393d;fontStyle=1" parent="m5smUrmSbZEZKF3f6fhh-272" vertex="1">
          <mxGeometry x="360" y="30" width="60" height="60" as="geometry" />
        </mxCell>
        <mxCell id="m5smUrmSbZEZKF3f6fhh-278" value="End Process" style="swimlane;html=1;startSize=20;horizontal=0;fillColor=#f8cecc;strokeColor=#b85450;" parent="2b4e8129b02d487f-1" vertex="1">
          <mxGeometry y="1820" width="1140" height="120" as="geometry" />
        </mxCell>
        <mxCell id="m5smUrmSbZEZKF3f6fhh-279" style="edgeStyle=orthogonalEdgeStyle;rounded=0;orthogonalLoop=1;jettySize=auto;html=1;exitX=1;exitY=0.5;exitDx=0;exitDy=0;entryX=0;entryY=0.5;entryDx=0;entryDy=0;" parent="m5smUrmSbZEZKF3f6fhh-278" source="m5smUrmSbZEZKF3f6fhh-280" target="m5smUrmSbZEZKF3f6fhh-281" edge="1">
          <mxGeometry relative="1" as="geometry" />
        </mxCell>
        <mxCell id="m5smUrmSbZEZKF3f6fhh-280" value="Send Mail Report" style="ellipse;whiteSpace=wrap;html=1;rounded=0;shadow=0;labelBackgroundColor=none;strokeWidth=1;fontFamily=Verdana;fontSize=8;align=center;fillColor=#ffff88;strokeColor=#36393d;fontStyle=1" parent="m5smUrmSbZEZKF3f6fhh-278" vertex="1">
          <mxGeometry x="40" y="30" width="60" height="60" as="geometry" />
        </mxCell>
        <mxCell id="m5smUrmSbZEZKF3f6fhh-281" value="Close All&amp;nbsp; Apps" style="rounded=1;whiteSpace=wrap;html=1;shadow=0;labelBackgroundColor=none;strokeWidth=1;fontFamily=Verdana;fontSize=8;align=center;fillColor=#f8cecc;strokeColor=#b85450;fontStyle=1" parent="m5smUrmSbZEZKF3f6fhh-278" vertex="1">
          <mxGeometry x="150" y="31.5" width="175" height="58.5" as="geometry" />
        </mxCell>
        <mxCell id="m5smUrmSbZEZKF3f6fhh-7" value="BE03" style="swimlane;html=1;startSize=20;horizontal=0;fillColor=#e51400;strokeColor=#B20000;fontColor=#ffffff;" parent="1" vertex="1">
          <mxGeometry x="-320" y="420" width="480" height="120" as="geometry" />
        </mxCell>
        <mxCell id="m5smUrmSbZEZKF3f6fhh-8" value="BE03" style="ellipse;whiteSpace=wrap;html=1;rounded=0;shadow=0;labelBackgroundColor=none;strokeWidth=1;fontFamily=Verdana;fontSize=8;align=center;fillColor=#e51400;strokeColor=#B20000;fontStyle=1;fontColor=#ffffff;" parent="m5smUrmSbZEZKF3f6fhh-7" vertex="1">
          <mxGeometry x="40" y="10" width="60" height="60" as="geometry" />
        </mxCell>
        <mxCell id="m5smUrmSbZEZKF3f6fhh-9" style="edgeStyle=orthogonalEdgeStyle;rounded=0;orthogonalLoop=1;jettySize=auto;html=1;exitX=1;exitY=0.5;exitDx=0;exitDy=0;entryX=0;entryY=0.5;entryDx=0;entryDy=0;" parent="m5smUrmSbZEZKF3f6fhh-7" source="m5smUrmSbZEZKF3f6fhh-10" target="m5smUrmSbZEZKF3f6fhh-11" edge="1">
          <mxGeometry relative="1" as="geometry" />
        </mxCell>
        <mxCell id="m5smUrmSbZEZKF3f6fhh-10" value="Send mail to Accounts Dept. Manager" style="rounded=1;whiteSpace=wrap;html=1;shadow=0;labelBackgroundColor=none;strokeWidth=1;fontFamily=Verdana;fontSize=8;align=center;fillColor=#e51400;strokeColor=#B20000;fontStyle=1;fontColor=#ffffff;" parent="m5smUrmSbZEZKF3f6fhh-7" vertex="1">
          <mxGeometry x="220" y="15.75" width="90" height="48.5" as="geometry" />
        </mxCell>
        <mxCell id="m5smUrmSbZEZKF3f6fhh-11" value="End&amp;nbsp;&lt;div&gt;Process&lt;/div&gt;" style="ellipse;whiteSpace=wrap;html=1;rounded=0;shadow=0;labelBackgroundColor=none;strokeWidth=1;fontFamily=Verdana;fontSize=8;align=center;fillColor=#ffcccc;strokeColor=#36393d;fontStyle=1;" parent="m5smUrmSbZEZKF3f6fhh-7" vertex="1">
          <mxGeometry x="410" y="10" width="60" height="60" as="geometry" />
        </mxCell>
        <mxCell id="m5smUrmSbZEZKF3f6fhh-12" style="edgeStyle=orthogonalEdgeStyle;rounded=0;orthogonalLoop=1;jettySize=auto;html=1;entryX=0;entryY=0.5;entryDx=0;entryDy=0;exitX=1;exitY=0.5;exitDx=0;exitDy=0;" parent="m5smUrmSbZEZKF3f6fhh-7" source="m5smUrmSbZEZKF3f6fhh-8" target="m5smUrmSbZEZKF3f6fhh-10" edge="1">
          <mxGeometry relative="1" as="geometry">
            <mxPoint x="140" y="40" as="sourcePoint" />
          </mxGeometry>
        </mxCell>
        <mxCell id="m5smUrmSbZEZKF3f6fhh-13" value="" style="rounded=0;whiteSpace=wrap;html=1;" parent="1" vertex="1">
          <mxGeometry x="180" y="-20" width="620" height="80" as="geometry" />
        </mxCell>
        <mxCell id="m5smUrmSbZEZKF3f6fhh-14" value="Color Map" style="rounded=0;whiteSpace=wrap;html=1;fontStyle=1" parent="1" vertex="1">
          <mxGeometry x="180" y="-50" width="120" height="30" as="geometry" />
        </mxCell>
        <mxCell id="m5smUrmSbZEZKF3f6fhh-15" value="ACME1 + ACME 3" style="rounded=1;whiteSpace=wrap;html=1;fillColor=#dae8fc;strokeColor=#6c8ebf;fontStyle=1" parent="1" vertex="1">
          <mxGeometry x="190" y="7" width="100" height="35" as="geometry" />
        </mxCell>
        <mxCell id="m5smUrmSbZEZKF3f6fhh-16" value="ACME 1" style="rounded=1;whiteSpace=wrap;html=1;fillColor=#d5e8d4;strokeColor=#82b366;fontStyle=1" parent="1" vertex="1">
          <mxGeometry x="300" y="7" width="60" height="35" as="geometry" />
        </mxCell>
        <mxCell id="m5smUrmSbZEZKF3f6fhh-17" value="ACME 1" style="rounded=1;whiteSpace=wrap;html=1;fillColor=#ffe6cc;strokeColor=#d79b00;fontStyle=1" parent="1" vertex="1">
          <mxGeometry x="370" y="7" width="50" height="35" as="geometry" />
        </mxCell>
        <mxCell id="m5smUrmSbZEZKF3f6fhh-18" value="ACME 3" style="rounded=1;whiteSpace=wrap;html=1;fillColor=#b1ddf0;strokeColor=#10739e;fontStyle=1" parent="1" vertex="1">
          <mxGeometry x="430" y="7" width="50" height="35" as="geometry" />
        </mxCell>
        <mxCell id="m5smUrmSbZEZKF3f6fhh-19" value="ACME 3" style="rounded=1;whiteSpace=wrap;html=1;fillColor=#bac8d3;strokeColor=#23445d;fontStyle=1" parent="1" vertex="1">
          <mxGeometry x="490" y="7" width="50" height="35" as="geometry" />
        </mxCell>
        <mxCell id="m5smUrmSbZEZKF3f6fhh-20" value="ACME 3" style="rounded=1;whiteSpace=wrap;html=1;fontStyle=1" parent="1" vertex="1">
          <mxGeometry x="550" y="7" width="50" height="35" as="geometry" />
        </mxCell>
        <mxCell id="m5smUrmSbZEZKF3f6fhh-21" value="ACME 1" style="rounded=1;whiteSpace=wrap;html=1;fontStyle=1;fillColor=#b0e3e6;strokeColor=#0e8088;" parent="1" vertex="1">
          <mxGeometry x="610" y="7" width="50" height="35" as="geometry" />
        </mxCell>
        <mxCell id="m5smUrmSbZEZKF3f6fhh-22" value="Mail" style="rounded=1;whiteSpace=wrap;html=1;fontStyle=1;fillColor=#ffff88;strokeColor=#36393d;" parent="1" vertex="1">
          <mxGeometry x="670" y="7" width="50" height="35" as="geometry" />
        </mxCell>
        <mxCell id="m5smUrmSbZEZKF3f6fhh-23" value="End" style="rounded=1;whiteSpace=wrap;html=1;fontStyle=1;fillColor=#ffcccc;strokeColor=#36393d;" parent="1" vertex="1">
          <mxGeometry x="730" y="7" width="50" height="35" as="geometry" />
        </mxCell>
        <mxCell id="m5smUrmSbZEZKF3f6fhh-54" value="SE01" style="swimlane;html=1;startSize=20;horizontal=0;fillColor=#e51400;strokeColor=#B20000;fontColor=#ffffff;" parent="1" vertex="1">
          <mxGeometry x="-320" y="60" width="480" height="120" as="geometry" />
        </mxCell>
        <mxCell id="m5smUrmSbZEZKF3f6fhh-55" style="edgeStyle=orthogonalEdgeStyle;rounded=0;orthogonalLoop=1;jettySize=auto;html=1;exitX=1;exitY=0.5;exitDx=0;exitDy=0;entryX=0;entryY=0.5;entryDx=0;entryDy=0;" parent="m5smUrmSbZEZKF3f6fhh-54" source="m5smUrmSbZEZKF3f6fhh-56" target="m5smUrmSbZEZKF3f6fhh-61" edge="1">
          <mxGeometry relative="1" as="geometry" />
        </mxCell>
        <mxCell id="m5smUrmSbZEZKF3f6fhh-56" value="SE01" style="ellipse;whiteSpace=wrap;html=1;rounded=0;shadow=0;labelBackgroundColor=none;strokeWidth=1;fontFamily=Verdana;fontSize=8;align=center;fillColor=#e51400;strokeColor=#B20000;fontStyle=1;fontColor=#ffffff;" parent="m5smUrmSbZEZKF3f6fhh-54" vertex="1">
          <mxGeometry x="40" y="10" width="60" height="60" as="geometry" />
        </mxCell>
        <mxCell id="m5smUrmSbZEZKF3f6fhh-57" style="edgeStyle=orthogonalEdgeStyle;rounded=0;orthogonalLoop=1;jettySize=auto;html=1;exitX=1;exitY=0.5;exitDx=0;exitDy=0;entryX=0;entryY=0.5;entryDx=0;entryDy=0;" parent="m5smUrmSbZEZKF3f6fhh-54" source="m5smUrmSbZEZKF3f6fhh-58" target="m5smUrmSbZEZKF3f6fhh-59" edge="1">
          <mxGeometry relative="1" as="geometry" />
        </mxCell>
        <mxCell id="m5smUrmSbZEZKF3f6fhh-58" value="Send Mail To IT Department&amp;nbsp;" style="rounded=1;whiteSpace=wrap;html=1;shadow=0;labelBackgroundColor=none;strokeWidth=1;fontFamily=Verdana;fontSize=8;align=center;fillColor=#e51400;strokeColor=#B20000;fontStyle=1;fontColor=#ffffff;" parent="m5smUrmSbZEZKF3f6fhh-54" vertex="1">
          <mxGeometry x="270" y="15.75" width="90" height="48.5" as="geometry" />
        </mxCell>
        <mxCell id="m5smUrmSbZEZKF3f6fhh-59" value="End&amp;nbsp;&lt;div&gt;Process&lt;/div&gt;" style="ellipse;whiteSpace=wrap;html=1;rounded=0;shadow=0;labelBackgroundColor=none;strokeWidth=1;fontFamily=Verdana;fontSize=8;align=center;fillColor=#ffcccc;strokeColor=#36393d;fontStyle=1;" parent="m5smUrmSbZEZKF3f6fhh-54" vertex="1">
          <mxGeometry x="410" y="10" width="60" height="60" as="geometry" />
        </mxCell>
        <mxCell id="m5smUrmSbZEZKF3f6fhh-60" style="edgeStyle=orthogonalEdgeStyle;rounded=0;orthogonalLoop=1;jettySize=auto;html=1;exitX=1;exitY=0.5;exitDx=0;exitDy=0;entryX=0;entryY=0.5;entryDx=0;entryDy=0;" parent="m5smUrmSbZEZKF3f6fhh-54" source="m5smUrmSbZEZKF3f6fhh-61" target="m5smUrmSbZEZKF3f6fhh-58" edge="1">
          <mxGeometry relative="1" as="geometry" />
        </mxCell>
        <mxCell id="m5smUrmSbZEZKF3f6fhh-61" value="Refresh Browser and Try Again" style="rounded=1;whiteSpace=wrap;html=1;shadow=0;labelBackgroundColor=none;strokeWidth=1;fontFamily=Verdana;fontSize=8;align=center;fillColor=#e51400;strokeColor=#B20000;fontStyle=1;fontColor=#ffffff;" parent="m5smUrmSbZEZKF3f6fhh-54" vertex="1">
          <mxGeometry x="140" y="15.75" width="90" height="48.5" as="geometry" />
        </mxCell>
        <mxCell id="m5smUrmSbZEZKF3f6fhh-62" value="3x" style="edgeStyle=orthogonalEdgeStyle;rounded=0;orthogonalLoop=1;jettySize=auto;html=1;exitX=0;exitY=0.75;exitDx=0;exitDy=0;entryX=0.25;entryY=1;entryDx=0;entryDy=0;fontStyle=1" parent="m5smUrmSbZEZKF3f6fhh-54" source="m5smUrmSbZEZKF3f6fhh-61" target="m5smUrmSbZEZKF3f6fhh-61" edge="1">
          <mxGeometry relative="1" as="geometry">
            <Array as="points">
              <mxPoint x="130" y="52" />
              <mxPoint x="130" y="80" />
              <mxPoint x="163" y="80" />
            </Array>
          </mxGeometry>
        </mxCell>
        <mxCell id="m5smUrmSbZEZKF3f6fhh-63" value="BE01" style="swimlane;html=1;startSize=20;horizontal=0;fillColor=#e51400;strokeColor=#B20000;fontColor=#ffffff;" parent="1" vertex="1">
          <mxGeometry x="-320" y="180" width="480" height="120" as="geometry" />
        </mxCell>
        <mxCell id="m5smUrmSbZEZKF3f6fhh-64" style="edgeStyle=orthogonalEdgeStyle;rounded=0;orthogonalLoop=1;jettySize=auto;html=1;exitX=1;exitY=0.5;exitDx=0;exitDy=0;entryX=0;entryY=0.5;entryDx=0;entryDy=0;" parent="m5smUrmSbZEZKF3f6fhh-63" source="m5smUrmSbZEZKF3f6fhh-65" target="m5smUrmSbZEZKF3f6fhh-70" edge="1">
          <mxGeometry relative="1" as="geometry" />
        </mxCell>
        <mxCell id="m5smUrmSbZEZKF3f6fhh-65" value="BE01" style="ellipse;whiteSpace=wrap;html=1;rounded=0;shadow=0;labelBackgroundColor=none;strokeWidth=1;fontFamily=Verdana;fontSize=8;align=center;fillColor=#e51400;strokeColor=#B20000;fontStyle=1;fontColor=#ffffff;" parent="m5smUrmSbZEZKF3f6fhh-63" vertex="1">
          <mxGeometry x="40" y="10" width="60" height="60" as="geometry" />
        </mxCell>
        <mxCell id="m5smUrmSbZEZKF3f6fhh-66" style="edgeStyle=orthogonalEdgeStyle;rounded=0;orthogonalLoop=1;jettySize=auto;html=1;exitX=1;exitY=0.5;exitDx=0;exitDy=0;entryX=0;entryY=0.5;entryDx=0;entryDy=0;" parent="m5smUrmSbZEZKF3f6fhh-63" source="m5smUrmSbZEZKF3f6fhh-67" target="m5smUrmSbZEZKF3f6fhh-68" edge="1">
          <mxGeometry relative="1" as="geometry" />
        </mxCell>
        <mxCell id="m5smUrmSbZEZKF3f6fhh-67" value="Send Mail To IT Department&amp;nbsp;" style="rounded=1;whiteSpace=wrap;html=1;shadow=0;labelBackgroundColor=none;strokeWidth=1;fontFamily=Verdana;fontSize=8;align=center;fillColor=#e51400;strokeColor=#B20000;fontStyle=1;fontColor=#ffffff;" parent="m5smUrmSbZEZKF3f6fhh-63" vertex="1">
          <mxGeometry x="270" y="15.75" width="90" height="48.5" as="geometry" />
        </mxCell>
        <mxCell id="m5smUrmSbZEZKF3f6fhh-68" value="End&amp;nbsp;&lt;div&gt;Process&lt;/div&gt;" style="ellipse;whiteSpace=wrap;html=1;rounded=0;shadow=0;labelBackgroundColor=none;strokeWidth=1;fontFamily=Verdana;fontSize=8;align=center;fillColor=#ffcccc;strokeColor=#36393d;fontStyle=1;" parent="m5smUrmSbZEZKF3f6fhh-63" vertex="1">
          <mxGeometry x="410" y="10" width="60" height="60" as="geometry" />
        </mxCell>
        <mxCell id="m5smUrmSbZEZKF3f6fhh-69" style="edgeStyle=orthogonalEdgeStyle;rounded=0;orthogonalLoop=1;jettySize=auto;html=1;exitX=1;exitY=0.5;exitDx=0;exitDy=0;entryX=0;entryY=0.5;entryDx=0;entryDy=0;" parent="m5smUrmSbZEZKF3f6fhh-63" source="m5smUrmSbZEZKF3f6fhh-70" target="m5smUrmSbZEZKF3f6fhh-67" edge="1">
          <mxGeometry relative="1" as="geometry" />
        </mxCell>
        <mxCell id="m5smUrmSbZEZKF3f6fhh-70" value="Refresh Browser and Try Again" style="rounded=1;whiteSpace=wrap;html=1;shadow=0;labelBackgroundColor=none;strokeWidth=1;fontFamily=Verdana;fontSize=8;align=center;fillColor=#e51400;strokeColor=#B20000;fontStyle=1;fontColor=#ffffff;" parent="m5smUrmSbZEZKF3f6fhh-63" vertex="1">
          <mxGeometry x="140" y="15.75" width="90" height="48.5" as="geometry" />
        </mxCell>
        <mxCell id="m5smUrmSbZEZKF3f6fhh-71" value="3x" style="edgeStyle=orthogonalEdgeStyle;rounded=0;orthogonalLoop=1;jettySize=auto;html=1;exitX=0;exitY=0.75;exitDx=0;exitDy=0;entryX=0.25;entryY=1;entryDx=0;entryDy=0;fontStyle=1" parent="m5smUrmSbZEZKF3f6fhh-63" source="m5smUrmSbZEZKF3f6fhh-70" target="m5smUrmSbZEZKF3f6fhh-70" edge="1">
          <mxGeometry relative="1" as="geometry">
            <Array as="points">
              <mxPoint x="130" y="52" />
              <mxPoint x="130" y="80" />
              <mxPoint x="163" y="80" />
            </Array>
          </mxGeometry>
        </mxCell>
        <mxCell id="m5smUrmSbZEZKF3f6fhh-1" value="BE02" style="swimlane;html=1;startSize=20;horizontal=0;fillColor=#e51400;strokeColor=#B20000;fontColor=#ffffff;" parent="1" vertex="1">
          <mxGeometry x="-320" y="300" width="480" height="120" as="geometry" />
        </mxCell>
        <mxCell id="m5smUrmSbZEZKF3f6fhh-2" value="BE02" style="ellipse;whiteSpace=wrap;html=1;rounded=0;shadow=0;labelBackgroundColor=none;strokeWidth=1;fontFamily=Verdana;fontSize=8;align=center;fillColor=#e51400;strokeColor=#B20000;fontStyle=1;fontColor=#ffffff;" parent="m5smUrmSbZEZKF3f6fhh-1" vertex="1">
          <mxGeometry x="40" y="10" width="60" height="60" as="geometry" />
        </mxCell>
        <mxCell id="m5smUrmSbZEZKF3f6fhh-3" style="edgeStyle=orthogonalEdgeStyle;rounded=0;orthogonalLoop=1;jettySize=auto;html=1;exitX=1;exitY=0.5;exitDx=0;exitDy=0;entryX=0;entryY=0.5;entryDx=0;entryDy=0;" parent="m5smUrmSbZEZKF3f6fhh-1" source="m5smUrmSbZEZKF3f6fhh-4" target="m5smUrmSbZEZKF3f6fhh-5" edge="1">
          <mxGeometry relative="1" as="geometry" />
        </mxCell>
        <mxCell id="m5smUrmSbZEZKF3f6fhh-4" value="Send mail to Customers Staff Manager" style="rounded=1;whiteSpace=wrap;html=1;shadow=0;labelBackgroundColor=none;strokeWidth=1;fontFamily=Verdana;fontSize=8;align=center;fillColor=#e51400;strokeColor=#B20000;fontStyle=1;fontColor=#ffffff;" parent="m5smUrmSbZEZKF3f6fhh-1" vertex="1">
          <mxGeometry x="220" y="15.75" width="90" height="48.5" as="geometry" />
        </mxCell>
        <mxCell id="m5smUrmSbZEZKF3f6fhh-5" value="End&amp;nbsp;&lt;div&gt;Process&lt;/div&gt;" style="ellipse;whiteSpace=wrap;html=1;rounded=0;shadow=0;labelBackgroundColor=none;strokeWidth=1;fontFamily=Verdana;fontSize=8;align=center;fillColor=#ffcccc;strokeColor=#36393d;fontStyle=1;" parent="m5smUrmSbZEZKF3f6fhh-1" vertex="1">
          <mxGeometry x="410" y="10" width="60" height="60" as="geometry" />
        </mxCell>
        <mxCell id="m5smUrmSbZEZKF3f6fhh-6" style="edgeStyle=orthogonalEdgeStyle;rounded=0;orthogonalLoop=1;jettySize=auto;html=1;entryX=0;entryY=0.5;entryDx=0;entryDy=0;exitX=1;exitY=0.5;exitDx=0;exitDy=0;" parent="m5smUrmSbZEZKF3f6fhh-1" source="m5smUrmSbZEZKF3f6fhh-2" target="m5smUrmSbZEZKF3f6fhh-4" edge="1">
          <mxGeometry relative="1" as="geometry">
            <mxPoint x="140" y="40" as="sourcePoint" />
          </mxGeometry>
        </mxCell>
        <mxCell id="m5smUrmSbZEZKF3f6fhh-90" value="BE04" style="swimlane;html=1;startSize=20;horizontal=0;fillColor=#e51400;strokeColor=#B20000;fontColor=#ffffff;" parent="1" vertex="1">
          <mxGeometry x="-320" y="540" width="480" height="120" as="geometry" />
        </mxCell>
        <mxCell id="m5smUrmSbZEZKF3f6fhh-91" value="BE04" style="ellipse;whiteSpace=wrap;html=1;rounded=0;shadow=0;labelBackgroundColor=none;strokeWidth=1;fontFamily=Verdana;fontSize=8;align=center;fillColor=#e51400;strokeColor=#B20000;fontStyle=1;fontColor=#ffffff;" parent="m5smUrmSbZEZKF3f6fhh-90" vertex="1">
          <mxGeometry x="40" y="10" width="60" height="60" as="geometry" />
        </mxCell>
        <mxCell id="m5smUrmSbZEZKF3f6fhh-92" style="edgeStyle=orthogonalEdgeStyle;rounded=0;orthogonalLoop=1;jettySize=auto;html=1;exitX=1;exitY=0.5;exitDx=0;exitDy=0;entryX=0;entryY=0.5;entryDx=0;entryDy=0;" parent="m5smUrmSbZEZKF3f6fhh-90" source="m5smUrmSbZEZKF3f6fhh-93" target="m5smUrmSbZEZKF3f6fhh-94" edge="1">
          <mxGeometry relative="1" as="geometry" />
        </mxCell>
        <mxCell id="m5smUrmSbZEZKF3f6fhh-93" value="Send Mail to ERP manager" style="rounded=1;whiteSpace=wrap;html=1;shadow=0;labelBackgroundColor=none;strokeWidth=1;fontFamily=Verdana;fontSize=8;align=center;fillColor=#e51400;strokeColor=#B20000;fontStyle=1;fontColor=#ffffff;" parent="m5smUrmSbZEZKF3f6fhh-90" vertex="1">
          <mxGeometry x="220" y="15.75" width="90" height="48.5" as="geometry" />
        </mxCell>
        <mxCell id="m5smUrmSbZEZKF3f6fhh-94" value="End&amp;nbsp;&lt;div&gt;Process&lt;/div&gt;" style="ellipse;whiteSpace=wrap;html=1;rounded=0;shadow=0;labelBackgroundColor=none;strokeWidth=1;fontFamily=Verdana;fontSize=8;align=center;fillColor=#ffcccc;strokeColor=#36393d;fontStyle=1;" parent="m5smUrmSbZEZKF3f6fhh-90" vertex="1">
          <mxGeometry x="410" y="10" width="60" height="60" as="geometry" />
        </mxCell>
        <mxCell id="m5smUrmSbZEZKF3f6fhh-95" style="edgeStyle=orthogonalEdgeStyle;rounded=0;orthogonalLoop=1;jettySize=auto;html=1;entryX=0;entryY=0.5;entryDx=0;entryDy=0;exitX=1;exitY=0.5;exitDx=0;exitDy=0;" parent="m5smUrmSbZEZKF3f6fhh-90" source="m5smUrmSbZEZKF3f6fhh-91" target="m5smUrmSbZEZKF3f6fhh-93" edge="1">
          <mxGeometry relative="1" as="geometry">
            <mxPoint x="140" y="40" as="sourcePoint" />
          </mxGeometry>
        </mxCell>
        <mxCell id="qDvnlJ15DeF9PJ7AHZqQ-2" value="BE05" style="swimlane;html=1;startSize=20;horizontal=0;fillColor=#e51400;strokeColor=#B20000;fontColor=#ffffff;" vertex="1" parent="1">
          <mxGeometry x="-320" y="660" width="480" height="120" as="geometry" />
        </mxCell>
        <mxCell id="qDvnlJ15DeF9PJ7AHZqQ-3" value="BE05" style="ellipse;whiteSpace=wrap;html=1;rounded=0;shadow=0;labelBackgroundColor=none;strokeWidth=1;fontFamily=Verdana;fontSize=8;align=center;fillColor=#e51400;strokeColor=#B20000;fontStyle=1;fontColor=#ffffff;" vertex="1" parent="qDvnlJ15DeF9PJ7AHZqQ-2">
          <mxGeometry x="40" y="10" width="60" height="60" as="geometry" />
        </mxCell>
        <mxCell id="qDvnlJ15DeF9PJ7AHZqQ-4" style="edgeStyle=orthogonalEdgeStyle;rounded=0;orthogonalLoop=1;jettySize=auto;html=1;exitX=1;exitY=0.5;exitDx=0;exitDy=0;entryX=0;entryY=0.5;entryDx=0;entryDy=0;" edge="1" parent="qDvnlJ15DeF9PJ7AHZqQ-2" source="qDvnlJ15DeF9PJ7AHZqQ-5" target="qDvnlJ15DeF9PJ7AHZqQ-6">
          <mxGeometry relative="1" as="geometry" />
        </mxCell>
        <mxCell id="qDvnlJ15DeF9PJ7AHZqQ-5" value="Send Mail to ERP manager" style="rounded=1;whiteSpace=wrap;html=1;shadow=0;labelBackgroundColor=none;strokeWidth=1;fontFamily=Verdana;fontSize=8;align=center;fillColor=#e51400;strokeColor=#B20000;fontStyle=1;fontColor=#ffffff;" vertex="1" parent="qDvnlJ15DeF9PJ7AHZqQ-2">
          <mxGeometry x="220" y="15.75" width="90" height="48.5" as="geometry" />
        </mxCell>
        <mxCell id="qDvnlJ15DeF9PJ7AHZqQ-6" value="End&amp;nbsp;&lt;div&gt;Process&lt;/div&gt;" style="ellipse;whiteSpace=wrap;html=1;rounded=0;shadow=0;labelBackgroundColor=none;strokeWidth=1;fontFamily=Verdana;fontSize=8;align=center;fillColor=#ffcccc;strokeColor=#36393d;fontStyle=1;" vertex="1" parent="qDvnlJ15DeF9PJ7AHZqQ-2">
          <mxGeometry x="410" y="10" width="60" height="60" as="geometry" />
        </mxCell>
        <mxCell id="qDvnlJ15DeF9PJ7AHZqQ-7" style="edgeStyle=orthogonalEdgeStyle;rounded=0;orthogonalLoop=1;jettySize=auto;html=1;entryX=0;entryY=0.5;entryDx=0;entryDy=0;exitX=1;exitY=0.5;exitDx=0;exitDy=0;" edge="1" parent="qDvnlJ15DeF9PJ7AHZqQ-2" source="qDvnlJ15DeF9PJ7AHZqQ-3" target="qDvnlJ15DeF9PJ7AHZqQ-5">
          <mxGeometry relative="1" as="geometry">
            <mxPoint x="140" y="40" as="sourcePoint" />
          </mxGeometry>
        </mxCell>
      </root>
    </mxGraphModel>
  </diagram>
</mxfile>
